<?xml version="1.0" encoding="UTF-8" standalone="no"?>
<!DOCTYPE svg PUBLIC "-//W3C//DTD SVG 1.1//EN" "http://www.w3.org/Graphics/SVG/1.1/DTD/svg11.dtd">
<svg version="1.1" xmlns="http://www.w3.org/2000/svg" xmlns:xlink="http://www.w3.org/1999/xlink" preserveAspectRatio="xMidYMid meet" viewBox="0 0 640 640" width="640" height="640"><defs><path d="M100.49 97.24C-23.24 218.83 -24.97 417.7 96.61 541.43C218.21 665.17 417.09 666.91 540.81 545.32C664.54 423.73 666.28 224.86 544.68 101.12C423.09 -22.61 224.22 -24.34 100.49 97.24Z" id="a1hjBbUyJj"></path><path d="M100.49 97.24C-23.24 218.83 -24.97 417.7 96.61 541.43C218.21 665.17 417.09 666.91 540.81 545.32C664.54 423.73 666.28 224.86 544.68 101.12C423.09 -22.61 224.22 -24.34 100.49 97.24Z" id="bhYIacWxW"></path><path d="M138.95 136.39C36.85 236.74 35.42 400.86 135.76 502.97C236.11 605.09 400.23 606.52 502.34 506.17C604.44 405.84 605.89 241.71 505.53 139.6C405.18 37.48 241.06 36.05 138.95 136.39Z" id="a7D8GTEkkK"></path><path d="M138.95 136.39C36.85 236.74 35.42 400.86 135.76 502.97C236.11 605.09 400.23 606.52 502.34 506.17C604.44 405.84 605.89 241.71 505.53 139.6C405.18 37.48 241.06 36.05 138.95 136.39Z" id="cjPXL0Awg"></path><path d="M333.79 34.85C333.57 34.58 331.84 32.31 331.62 32.03C333 31.81 334.22 31.3 335.28 30.45C336.34 29.61 336.86 28.69 336.85 27.7C336.83 26.38 336.27 25.32 335.2 24.48C334.13 23.65 332.9 23.24 331.51 23.27C329.44 23.3 327.69 24.32 326.26 26.31C324.93 28.1 324.29 30.08 324.31 32.23C324.34 33.37 324.44 39.12 324.62 49.46C324.18 49.47 320.66 49.53 320.22 49.53C320.04 39.2 319.94 33.45 319.92 32.3C319.88 30.11 319.2 28.13 317.85 26.37C316.43 24.48 314.74 23.56 312.75 23.6C311.18 23.62 309.86 24.01 308.8 24.76C307.58 25.62 306.99 26.76 307.01 28.21C307.02 29.28 307.58 30.23 308.67 31.08C309.76 31.93 310.96 32.44 312.27 32.59C312.12 32.85 310.86 34.98 310.71 35.25C309.37 34.98 308.24 34.2 307.33 32.89C306.42 31.59 305.95 30.03 305.91 28.22C305.88 26.32 306.57 24.74 307.99 23.48C309.33 22.33 310.9 21.73 312.71 21.71C315.04 21.67 317.07 22.43 318.8 24C320.42 25.52 321.44 27.43 321.84 29.76C321.88 29.76 322.2 29.75 322.24 29.75C322.61 27.39 323.62 25.43 325.24 23.89C326.96 22.27 329.05 21.43 331.52 21.39C333.19 21.35 334.66 21.95 335.94 23.15C337.22 24.37 337.88 25.87 337.9 27.67C337.94 29.46 337.57 30.99 336.83 32.27C336.08 33.55 335.07 34.41 333.79 34.85Z" id="e5Ukl9U4h"></path><path d="M333.79 34.85C333.57 34.58 331.84 32.31 331.62 32.03C333 31.81 334.22 31.3 335.28 30.45C336.34 29.61 336.86 28.69 336.85 27.7C336.83 26.38 336.27 25.32 335.2 24.48C334.13 23.65 332.9 23.24 331.51 23.27C329.44 23.3 327.69 24.32 326.26 26.31C324.93 28.1 324.29 30.08 324.31 32.23C324.34 33.37 324.44 39.12 324.62 49.46C324.18 49.47 320.66 49.53 320.22 49.53C320.04 39.2 319.94 33.45 319.92 32.3C319.88 30.11 319.2 28.13 317.85 26.37C316.43 24.48 314.74 23.56 312.75 23.6C311.18 23.62 309.86 24.01 308.8 24.76C307.58 25.62 306.99 26.76 307.01 28.21C307.02 29.28 307.58 30.23 308.67 31.08C309.76 31.93 310.96 32.44 312.27 32.59C312.12 32.85 310.86 34.98 310.71 35.25C309.37 34.98 308.24 34.2 307.33 32.89C306.42 31.59 305.95 30.03 305.91 28.22C305.88 26.32 306.57 24.74 307.99 23.48C309.33 22.33 310.9 21.73 312.71 21.71C315.04 21.67 317.07 22.43 318.8 24C320.42 25.52 321.44 27.43 321.84 29.76C321.88 29.76 322.2 29.75 322.24 29.75C322.61 27.39 323.62 25.43 325.24 23.89C326.96 22.27 329.05 21.43 331.52 21.39C333.19 21.35 334.66 21.95 335.94 23.15C337.22 24.37 337.88 25.87 337.9 27.67C337.94 29.46 337.57 30.99 336.83 32.27C336.08 33.55 335.07 34.41 333.79 34.85Z" id="aQQTwZeqy"></path><path d="M182.24 61.29L182.32 61.64L182.45 62.35L182.52 63.06L182.55 63.42L182.56 63.77L182.56 64.12L182.55 64.47L182.5 65.18L182.46 65.53L182.41 65.88L182.26 66.62L182.17 66.96L182.07 67.29L181.97 67.61L181.71 68.22L181.56 68.49L181.41 68.76L181.26 69.01L181.08 69.27L180.7 69.72L180.5 69.93L180.28 70.13L180.05 70.31L180.41 70.18L180.76 70.08L181.12 69.99L181.48 69.91L182.22 69.81L182.59 69.79L183.35 69.79L183.73 69.81L184.11 69.85L184.5 69.9L184.88 69.98L185.27 70.06L185.68 70.17L186.07 70.28L186.51 70.43L186.93 70.6L187.35 70.77L188.13 71.18L188.5 71.41L189.21 71.91L189.54 72.19L189.86 72.48L190.16 72.79L190.46 73.1L190.74 73.45L191.01 73.8L191.26 74.17L191.5 74.55L191.74 74.98L191.97 75.42L192.16 75.87L192.34 76.31L192.49 76.76L192.62 77.22L192.73 77.68L192.81 78.13L192.86 78.6L192.9 79.07L192.91 79.54L192.88 80.01L192.85 80.49L192.78 80.97L192.71 81.45L192.59 81.94L192.45 82.43L192.3 82.89L192.14 83.35L191.95 83.79L191.73 84.21L191.5 84.63L191.25 85.02L190.98 85.4L190.69 85.77L190.38 86.12L190.05 86.47L189.7 86.8L188.94 87.4L188.53 87.68L188.11 87.95L187.68 88.19L187.25 88.42L186.8 88.61L186.37 88.78L185.93 88.94L185.49 89.06L185.03 89.16L184.58 89.24L184.12 89.3L183.66 89.33L183.19 89.34L182.73 89.33L182.24 89.3L181.78 89.24L181.29 89.16L180.81 89.05L180.31 88.92L179.83 88.78L179.37 88.61L178.91 88.42L178.47 88.21L178.05 87.97L177.65 87.72L177.25 87.45L176.87 87.16L176.51 86.85L176.15 86.5L175.82 86.15L175.49 85.77L175.19 85.38L174.9 84.95L174.63 84.52L174.43 84.16L174.25 83.81L174.09 83.45L173.94 83.08L173.81 82.7L173.7 82.34L173.59 81.94L173.52 81.56L173.46 81.16L173.42 80.77L173.38 80.36L173.37 79.94L173.38 79.53L173.4 79.11L173.44 78.68L173.49 78.23L173.56 77.84L173.63 77.46L173.73 77.08L173.82 76.71L173.94 76.36L174.06 76L174.19 75.66L174.34 75.32L174.49 74.99L174.66 74.67L174.84 74.36L175.03 74.05L175.23 73.76L175.44 73.47L175.9 72.91L175.14 73.07L174.39 73.15L173.67 73.19L172.96 73.19L172.28 73.13L171.61 73.03L170.95 72.86L170.31 72.66L169.69 72.41L169.1 72.09L168.52 71.74L167.95 71.33L167.4 70.87L166.88 70.37L166.36 69.81L165.87 69.2L166.27 69.48L166.68 69.74L167.08 69.98L167.49 70.19L167.91 70.39L168.33 70.57L169.19 70.87L169.62 70.99L170.05 71.09L170.49 71.18L170.93 71.24L171.38 71.29L171.83 71.32L172.29 71.33L172.76 71.32L173.1 71.31L173.78 71.25L174.44 71.15L174.77 71.09L175.1 71.01L175.42 70.94L175.72 70.84L176.04 70.74L176.65 70.51L177.23 70.23L177.52 70.08L177.81 69.91L178.43 69.51L179 69.09L179.52 68.63L180 68.15L180.43 67.65L180.81 67.1L181.14 66.54L181.42 65.95L181.66 65.33L181.84 64.68L181.98 64.01L182.07 63.3L182.12 62.58L182.11 61.82L182.05 61.03L181.95 60.22L182.16 60.93L182.24 61.29ZM178.71 72.52L177.81 72.81L176.96 73.24L176.51 73.56L176.11 73.93L175.77 74.35L175.49 74.83L175.27 75.36L175.09 75.94L174.97 76.57L174.92 77.25L174.94 77.9L175.01 78.55L175.16 79.21L175.38 79.85L175.66 80.5L176 81.13L176.65 82.11L177.37 83L178.18 83.81L179.08 84.53L180.05 85.17L181.12 85.74L182.26 86.23L183.41 86.61L184.51 86.85L185.55 86.97L186.54 86.96L187.46 86.82L188.32 86.55L189.13 86.15L189.57 85.85L189.95 85.5L190.27 85.09L190.57 84.63L190.81 84.11L191 83.53L191.14 82.91L191.21 82.25L191.22 81.6L191.17 80.96L191.05 80.32L190.86 79.69L190.59 79.06L190.25 78.44L189.57 77.38L188.81 76.44L187.97 75.57L187.06 74.8L186.08 74.13L185.03 73.55L183.92 73.05L182.78 72.69L181.7 72.45L180.65 72.33L179.66 72.37L178.71 72.52Z" id="gkdB8rYAO"></path><path d="M182.24 61.29L182.32 61.64L182.45 62.35L182.52 63.06L182.55 63.42L182.56 63.77L182.56 64.12L182.55 64.47L182.5 65.18L182.46 65.53L182.41 65.88L182.26 66.62L182.17 66.96L182.07 67.29L181.97 67.61L181.71 68.22L181.56 68.49L181.41 68.76L181.26 69.01L181.08 69.27L180.7 69.72L180.5 69.93L180.28 70.13L180.05 70.31L180.41 70.18L180.76 70.08L181.12 69.99L181.48 69.91L182.22 69.81L182.59 69.79L183.35 69.79L183.73 69.81L184.11 69.85L184.5 69.9L184.88 69.98L185.27 70.06L185.68 70.17L186.07 70.28L186.51 70.43L186.93 70.6L187.35 70.77L188.13 71.18L188.5 71.41L189.21 71.91L189.54 72.19L189.86 72.48L190.16 72.79L190.46 73.1L190.74 73.45L191.01 73.8L191.26 74.17L191.5 74.55L191.74 74.98L191.97 75.42L192.16 75.87L192.34 76.31L192.49 76.76L192.62 77.22L192.73 77.68L192.81 78.13L192.86 78.6L192.9 79.07L192.91 79.54L192.88 80.01L192.85 80.49L192.78 80.97L192.71 81.45L192.59 81.94L192.45 82.43L192.3 82.89L192.14 83.35L191.95 83.79L191.73 84.21L191.5 84.63L191.25 85.02L190.98 85.4L190.69 85.77L190.38 86.12L190.05 86.47L189.7 86.8L188.94 87.4L188.53 87.68L188.11 87.95L187.68 88.19L187.25 88.42L186.8 88.61L186.37 88.78L185.93 88.94L185.49 89.06L185.03 89.16L184.58 89.24L184.12 89.3L183.66 89.33L183.19 89.34L182.73 89.33L182.24 89.3L181.78 89.24L181.29 89.16L180.81 89.05L180.31 88.92L179.83 88.78L179.37 88.61L178.91 88.42L178.47 88.21L178.05 87.97L177.65 87.72L177.25 87.45L176.87 87.16L176.51 86.85L176.15 86.5L175.82 86.15L175.49 85.77L175.19 85.38L174.9 84.95L174.63 84.52L174.43 84.16L174.25 83.81L174.09 83.45L173.94 83.08L173.81 82.7L173.7 82.34L173.59 81.94L173.52 81.56L173.46 81.16L173.42 80.77L173.38 80.36L173.37 79.94L173.38 79.53L173.4 79.11L173.44 78.68L173.49 78.23L173.56 77.84L173.63 77.46L173.73 77.08L173.82 76.71L173.94 76.36L174.06 76L174.19 75.66L174.34 75.32L174.49 74.99L174.66 74.67L174.84 74.36L175.03 74.05L175.23 73.76L175.44 73.47L175.9 72.91L175.14 73.07L174.39 73.15L173.67 73.19L172.96 73.19L172.28 73.13L171.61 73.03L170.95 72.86L170.31 72.66L169.69 72.41L169.1 72.09L168.52 71.74L167.95 71.33L167.4 70.87L166.88 70.37L166.36 69.81L165.87 69.2L166.27 69.48L166.68 69.74L167.08 69.98L167.49 70.19L167.91 70.39L168.33 70.57L169.19 70.87L169.62 70.99L170.05 71.09L170.49 71.18L170.93 71.24L171.38 71.29L171.83 71.32L172.29 71.33L172.76 71.32L173.1 71.31L173.78 71.25L174.44 71.15L174.77 71.09L175.1 71.01L175.42 70.94L175.72 70.84L176.04 70.74L176.65 70.51L177.23 70.23L177.52 70.08L177.81 69.91L178.43 69.51L179 69.09L179.52 68.63L180 68.15L180.43 67.65L180.81 67.1L181.14 66.54L181.42 65.95L181.66 65.33L181.84 64.68L181.98 64.01L182.07 63.3L182.12 62.58L182.11 61.82L182.05 61.03L181.95 60.22L182.16 60.93L182.24 61.29ZM178.71 72.52L177.81 72.81L176.96 73.24L176.51 73.56L176.11 73.93L175.77 74.35L175.49 74.83L175.27 75.36L175.09 75.94L174.97 76.57L174.92 77.25L174.94 77.9L175.01 78.55L175.16 79.21L175.38 79.85L175.66 80.5L176 81.13L176.65 82.11L177.37 83L178.18 83.81L179.08 84.53L180.05 85.17L181.12 85.74L182.26 86.23L183.41 86.61L184.51 86.85L185.55 86.97L186.54 86.96L187.46 86.82L188.32 86.55L189.13 86.15L189.57 85.85L189.95 85.5L190.27 85.09L190.57 84.63L190.81 84.11L191 83.53L191.14 82.91L191.21 82.25L191.22 81.6L191.17 80.96L191.05 80.32L190.86 79.69L190.59 79.06L190.25 78.44L189.57 77.38L188.81 76.44L187.97 75.57L187.06 74.8L186.08 74.13L185.03 73.55L183.92 73.05L182.78 72.69L181.7 72.45L180.65 72.33L179.66 72.37L178.71 72.52Z" id="aMOnH6snf"></path><path d="M74.01 160.76L73.96 160.88L73.91 160.98L73.83 161.2L73.8 161.33L73.78 161.44L73.77 161.56L73.77 161.67L73.75 161.8L73.77 161.91L73.78 162.04L73.8 162.15L73.85 162.41L73.91 162.52L73.94 162.65L73.99 162.77L74.12 163L74.18 163.1L74.25 163.22L74.32 163.32L74.41 163.42L74.49 163.52L74.59 163.61L74.68 163.7L74.78 163.79L74.88 163.86L74.99 163.95L75.11 164.03L75.24 164.1L94.44 175.29L94.54 175.35L94.88 175.5L94.98 175.54L95.21 175.59L95.44 175.62L95.54 175.63L95.65 175.63L95.99 175.59L96.22 175.54L96.34 175.5L96.44 175.47L96.55 175.41L96.75 175.31L96.84 175.25L96.94 175.19L97.03 175.12L97.12 175.05L97.2 174.96L97.29 174.88L97.36 174.79L97.44 174.69L97.5 174.6L97.58 174.49L97.64 174.39L97.8 174.49L86.09 194.6L85.91 194.5L85.98 194.4L86.04 194.29L86.09 194.17L86.24 193.72L86.27 193.6L86.28 193.49L86.29 193.36L86.3 193.25L86.3 192.89L86.29 192.77L86.27 192.64L86.25 192.53L86.22 192.41L86.19 192.3L86.14 192.18L86.1 192.08L86.05 191.97L85.99 191.88L85.92 191.78L85.86 191.69L85.79 191.6L85.61 191.42L85.52 191.35L85.32 191.2L85.2 191.13L66 179.94L65.88 179.87L65.74 179.8L65.61 179.75L65.48 179.68L65.34 179.65L65.09 179.57L64.96 179.54L64.84 179.53L64.7 179.52L64.57 179.51L64.44 179.51L64.19 179.53L63.94 179.58L63.81 179.62L63.7 179.66L63.57 179.7L63.46 179.75L63.36 179.81L63.24 179.87L63.14 179.94L63.04 180.01L62.95 180.09L62.85 180.16L62.76 180.25L62.68 180.35L62.6 180.46L62.52 180.56L62.44 180.67L62.38 180.78L62.2 180.68L73.93 160.57L74.07 160.65L74.01 160.76ZM70.95 167.77L70.68 167.94L70.41 168.17L70.17 168.47L69.93 168.83L67.36 173.24L67.19 173.57L67.08 173.9L67.03 174.2L67.03 174.5L67.09 174.78L67.22 175.06L67.4 175.33L67.62 175.58L67.93 175.81L68.27 176.04L87.47 187.23L87.82 187.41L88.15 187.55L88.48 187.61L88.77 187.64L89.07 187.6L89.33 187.5L89.6 187.36L89.83 187.16L90.05 186.9L90.26 186.59L92.83 182.18L92.92 182L93 181.84L93.07 181.67L93.12 181.49L93.16 181.33L93.18 181.16L93.19 181L93.19 180.84L93.17 180.66L93.14 180.49L93.11 180.33L93.06 180.18L92.98 180.04L92.9 179.89L92.81 179.76L92.71 179.63L92.59 179.51L92.46 179.39L92.32 179.29L92.16 179.19L72.96 168.01L72.59 167.82L72.23 167.68L71.89 167.61L71.56 167.6L71.26 167.65L70.95 167.77Z" id="bHVrIsssp"></path><path d="M74.01 160.76L73.96 160.88L73.91 160.98L73.83 161.2L73.8 161.33L73.78 161.44L73.77 161.56L73.77 161.67L73.75 161.8L73.77 161.91L73.78 162.04L73.8 162.15L73.85 162.41L73.91 162.52L73.94 162.65L73.99 162.77L74.12 163L74.18 163.1L74.25 163.22L74.32 163.32L74.41 163.42L74.49 163.52L74.59 163.61L74.68 163.7L74.78 163.79L74.88 163.86L74.99 163.95L75.11 164.03L75.24 164.1L94.44 175.29L94.54 175.35L94.88 175.5L94.98 175.54L95.21 175.59L95.44 175.62L95.54 175.63L95.65 175.63L95.99 175.59L96.22 175.54L96.34 175.5L96.44 175.47L96.55 175.41L96.75 175.31L96.84 175.25L96.94 175.19L97.03 175.12L97.12 175.05L97.2 174.96L97.29 174.88L97.36 174.79L97.44 174.69L97.5 174.6L97.58 174.49L97.64 174.39L97.8 174.49L86.09 194.6L85.91 194.5L85.98 194.4L86.04 194.29L86.09 194.17L86.24 193.72L86.27 193.6L86.28 193.49L86.29 193.36L86.3 193.25L86.3 192.89L86.29 192.77L86.27 192.64L86.25 192.53L86.22 192.41L86.19 192.3L86.14 192.18L86.1 192.08L86.05 191.97L85.99 191.88L85.92 191.78L85.86 191.69L85.79 191.6L85.61 191.42L85.52 191.35L85.32 191.2L85.2 191.13L66 179.94L65.88 179.87L65.74 179.8L65.61 179.75L65.48 179.68L65.34 179.65L65.09 179.57L64.96 179.54L64.84 179.53L64.7 179.52L64.57 179.51L64.44 179.51L64.19 179.53L63.94 179.58L63.81 179.62L63.7 179.66L63.57 179.7L63.46 179.75L63.36 179.81L63.24 179.87L63.14 179.94L63.04 180.01L62.95 180.09L62.85 180.16L62.76 180.25L62.68 180.35L62.6 180.46L62.52 180.56L62.44 180.67L62.38 180.78L62.2 180.68L73.93 160.57L74.07 160.65L74.01 160.76ZM70.95 167.77L70.68 167.94L70.41 168.17L70.17 168.47L69.93 168.83L67.36 173.24L67.19 173.57L67.08 173.9L67.03 174.2L67.03 174.5L67.09 174.78L67.22 175.06L67.4 175.33L67.62 175.58L67.93 175.81L68.27 176.04L87.47 187.23L87.82 187.41L88.15 187.55L88.48 187.61L88.77 187.64L89.07 187.6L89.33 187.5L89.6 187.36L89.83 187.16L90.05 186.9L90.26 186.59L92.83 182.18L92.92 182L93 181.84L93.07 181.67L93.12 181.49L93.16 181.33L93.18 181.16L93.19 181L93.19 180.84L93.17 180.66L93.14 180.49L93.11 180.33L93.06 180.18L92.98 180.04L92.9 179.89L92.81 179.76L92.71 179.63L92.59 179.51L92.46 179.39L92.32 179.29L92.16 179.19L72.96 168.01L72.59 167.82L72.23 167.68L71.89 167.61L71.56 167.6L71.26 167.65L70.95 167.77Z" id="aL0z9k2Fc"></path><path d="M38.04 300.03L38.37 300.09L38.68 300.17L39 300.26L39.3 300.37L39.59 300.5L39.89 300.65L40.16 300.8L40.44 300.98L40.71 301.17L40.96 301.37L41.22 301.6L41.46 301.84L41.68 302.09L41.91 302.37L42.13 302.66L42.32 302.93L42.5 303.2L42.66 303.47L42.81 303.75L42.95 304.04L43.08 304.32L43.2 304.63L43.31 304.92L43.41 305.22L43.5 305.53L43.57 305.84L43.64 306.16L43.69 306.48L43.74 306.81L43.76 307.13L43.79 307.46L43.8 307.81L43.8 308.15L43.79 308.49L43.76 308.83L43.74 309.17L43.69 309.49L43.65 309.81L43.58 310.11L43.51 310.41L43.43 310.71L43.34 310.98L43.24 311.26L43.13 311.53L43.01 311.78L42.89 312.02L42.75 312.26L42.6 312.5L42.44 312.72L42.27 312.94L42.09 313.14L41.94 313.32L41.76 313.48L41.6 313.63L41.42 313.78L41.24 313.91L41.06 314.04L40.89 314.15L40.7 314.25L40.51 314.35L40.3 314.43L40.1 314.51L39.9 314.57L39.7 314.62L39.49 314.66L39.28 314.7L39.05 314.72L38.83 314.72L38.61 314.73L38.37 314.72L38.14 314.71L37.91 314.68L37.68 314.66L37.45 314.62L37.24 314.58L37.02 314.53L36.82 314.47L36.62 314.4L36.42 314.34L36.21 314.25L36.02 314.18L35.83 314.09L35.64 313.99L35.47 313.89L35.29 313.77L35.11 313.64L34.93 313.52L34.78 313.39L34.62 313.25L34.47 313.11L34.33 312.97L34.19 312.82L34.06 312.68L33.95 312.52L33.83 312.37L33.73 312.2L33.63 312.04L33.54 311.87L33.45 311.69L33.38 311.52L33.31 311.34L33.25 311.16L33.2 310.97L33.15 310.78L33.11 310.58L33.26 310.83L33.43 311.07L33.59 311.3L33.77 311.5L33.95 311.71L34.14 311.88L34.34 312.06L34.55 312.21L34.77 312.35L34.98 312.48L35.23 312.59L35.47 312.68L35.71 312.77L35.97 312.83L36.23 312.9L36.5 312.94L36.78 312.96L37.07 312.97L37.33 312.97L37.57 312.96L37.82 312.95L38.05 312.92L38.28 312.88L38.51 312.83L38.72 312.78L38.94 312.72L39.14 312.64L39.34 312.57L39.53 312.48L39.72 312.38L39.9 312.26L40.08 312.15L40.24 312.02L40.41 311.88L40.56 311.74L40.71 311.58L40.84 311.44L40.96 311.29L41.08 311.14L41.19 310.97L41.29 310.81L41.38 310.64L41.47 310.47L41.55 310.28L41.62 310.09L41.68 309.9L41.75 309.69L41.8 309.49L41.84 309.29L41.87 309.07L41.9 308.84L41.93 308.62L41.94 308.39L41.95 308.15L41.95 308.1L41.95 308.05L41.95 308L41.95 307.95L41.95 307.88L41.95 307.83L41.95 307.78L41.94 307.73L41.94 307.67L41.94 307.62L41.94 307.57L41.93 307.5L41.93 307.45L41.91 307.4L41.91 307.34L41.9 307.29L41.9 307.22L41.89 307.17L41.86 307.02L41.84 306.87L41.81 306.72L41.76 306.56L41.72 306.43L41.67 306.27L41.61 306.13L41.55 305.98L41.47 305.84L41.39 305.7L41.32 305.56L41.23 305.42L41.13 305.3L41.03 305.16L40.92 305.02L40.81 304.89L40.68 304.77L40.56 304.63L40.43 304.5L40.3 304.39L40.16 304.27L40.03 304.17L39.89 304.07L39.75 303.98L39.59 303.9L39.46 303.83L39.3 303.75L39.15 303.69L39 303.64L38.83 303.59L38.67 303.55L38.52 303.51L38.34 303.49L38.18 303.46L38.01 303.45L37.83 303.44L37.44 303.45L37.06 303.47L36.69 303.51L36.33 303.58L35.99 303.66L35.64 303.77L35.31 303.89L35 304.03L34.69 304.2L34.39 304.39L34.11 304.59L33.83 304.82L33.57 305.07L33.31 305.34L33.07 305.61L32.83 305.93L32.62 306.26L32.4 306.6L32.22 306.93L32.05 307.27L31.88 307.63L31.73 308L31.59 308.38L31.46 308.78L31.34 309.19L31.22 309.62L31.12 310.06L31.03 310.5L30.96 310.98L30.88 311.47L30.82 311.96L30.75 312.47L30.72 313L30.68 313.53L30.65 314.09L30.64 314.66L30.64 315.1L30.64 315.53L30.64 315.98L30.65 316.41L30.68 316.84L30.7 317.28L30.74 317.71L30.78 318.15L30.82 318.58L30.88 319.03L30.93 319.47L31 319.9L31.07 320.34L31.15 320.78L31.24 321.22L31.32 321.65L31.41 322.09L31.51 322.54L31.64 323.03L31.78 323.52L31.92 324L32.07 324.49L32.24 324.94L32.4 325.4L32.57 325.84L32.74 326.27L32.92 326.7L33.11 327.11L33.31 327.51L33.52 327.91L33.72 328.29L33.95 328.67L34.16 329.02L34.39 329.38L34.63 329.72L34.87 330.05L34.48 329.83L34.1 329.59L33.72 329.32L33.36 329.05L33.01 328.75L32.65 328.45L32.32 328.12L32 327.77L31.68 327.41L31.36 327.03L31.06 326.64L30.77 326.22L30.49 325.79L30.22 325.35L29.96 324.88L29.7 324.4L29.46 323.9L29.22 323.38L29.02 322.92L28.82 322.45L28.64 321.98L28.46 321.5L28.31 321.02L28.16 320.55L28.03 320.07L27.9 319.58L27.8 319.1L27.7 318.62L27.63 318.14L27.55 317.65L27.49 317.17L27.45 316.68L27.41 316.19L27.39 315.7L27.37 315.22L27.39 314.72L27.44 313.1L27.55 311.58L27.73 310.15L27.94 308.82L28.23 307.58L28.56 306.43L28.97 305.37L29.41 304.41L29.92 303.54L30.49 302.77L31.1 302.08L31.78 301.5L32.5 301L33.29 300.6L34.14 300.3L35.04 300.08L35.99 299.97L37 299.93L37.35 299.95L37.69 299.98L38.04 300.03Z" id="a1qArYK8Sd"></path><path d="M38.04 300.03L38.37 300.09L38.68 300.17L39 300.26L39.3 300.37L39.59 300.5L39.89 300.65L40.16 300.8L40.44 300.98L40.71 301.17L40.96 301.37L41.22 301.6L41.46 301.84L41.68 302.09L41.91 302.37L42.13 302.66L42.32 302.93L42.5 303.2L42.66 303.47L42.81 303.75L42.95 304.04L43.08 304.32L43.2 304.63L43.31 304.92L43.41 305.22L43.5 305.53L43.57 305.84L43.64 306.16L43.69 306.48L43.74 306.81L43.76 307.13L43.79 307.46L43.8 307.81L43.8 308.15L43.79 308.49L43.76 308.83L43.74 309.17L43.69 309.49L43.65 309.81L43.58 310.11L43.51 310.41L43.43 310.71L43.34 310.98L43.24 311.26L43.13 311.53L43.01 311.78L42.89 312.02L42.75 312.26L42.6 312.5L42.44 312.72L42.27 312.94L42.09 313.14L41.94 313.32L41.76 313.48L41.6 313.63L41.42 313.78L41.24 313.91L41.06 314.04L40.89 314.15L40.7 314.25L40.51 314.35L40.3 314.43L40.1 314.51L39.9 314.57L39.7 314.62L39.49 314.66L39.28 314.7L39.05 314.72L38.83 314.72L38.61 314.73L38.37 314.72L38.14 314.71L37.91 314.68L37.68 314.66L37.45 314.62L37.24 314.58L37.02 314.53L36.82 314.47L36.62 314.4L36.42 314.34L36.21 314.25L36.02 314.18L35.83 314.09L35.64 313.99L35.47 313.89L35.29 313.77L35.11 313.64L34.93 313.52L34.78 313.39L34.62 313.25L34.47 313.11L34.33 312.97L34.19 312.82L34.06 312.68L33.95 312.52L33.83 312.37L33.73 312.2L33.63 312.04L33.54 311.87L33.45 311.69L33.38 311.52L33.31 311.34L33.25 311.16L33.2 310.97L33.15 310.78L33.11 310.58L33.26 310.83L33.43 311.07L33.59 311.3L33.77 311.5L33.95 311.71L34.14 311.88L34.34 312.06L34.55 312.21L34.77 312.35L34.98 312.48L35.23 312.59L35.47 312.68L35.71 312.77L35.97 312.83L36.23 312.9L36.5 312.94L36.78 312.96L37.07 312.97L37.33 312.97L37.57 312.96L37.82 312.95L38.05 312.92L38.28 312.88L38.51 312.83L38.72 312.78L38.94 312.72L39.14 312.64L39.34 312.57L39.53 312.48L39.72 312.38L39.9 312.26L40.08 312.15L40.24 312.02L40.41 311.88L40.56 311.74L40.71 311.58L40.84 311.44L40.96 311.29L41.08 311.14L41.19 310.97L41.29 310.81L41.38 310.64L41.47 310.47L41.55 310.28L41.62 310.09L41.68 309.9L41.75 309.69L41.8 309.49L41.84 309.29L41.87 309.07L41.9 308.84L41.93 308.62L41.94 308.39L41.95 308.15L41.95 308.1L41.95 308.05L41.95 308L41.95 307.95L41.95 307.88L41.95 307.83L41.95 307.78L41.94 307.73L41.94 307.67L41.94 307.62L41.94 307.57L41.93 307.5L41.93 307.45L41.91 307.4L41.91 307.34L41.9 307.29L41.9 307.22L41.89 307.17L41.86 307.02L41.84 306.87L41.81 306.72L41.76 306.56L41.72 306.43L41.67 306.27L41.61 306.13L41.55 305.98L41.47 305.84L41.39 305.7L41.32 305.56L41.23 305.42L41.13 305.3L41.03 305.16L40.92 305.02L40.81 304.89L40.68 304.77L40.56 304.63L40.43 304.5L40.3 304.39L40.16 304.27L40.03 304.17L39.89 304.07L39.75 303.98L39.59 303.9L39.46 303.83L39.3 303.75L39.15 303.69L39 303.64L38.83 303.59L38.67 303.55L38.52 303.51L38.34 303.49L38.18 303.46L38.01 303.45L37.83 303.44L37.44 303.45L37.06 303.47L36.69 303.51L36.33 303.58L35.99 303.66L35.64 303.77L35.31 303.89L35 304.03L34.69 304.2L34.39 304.39L34.11 304.59L33.83 304.82L33.57 305.07L33.31 305.34L33.07 305.61L32.83 305.93L32.62 306.26L32.4 306.6L32.22 306.93L32.05 307.27L31.88 307.63L31.73 308L31.59 308.38L31.46 308.78L31.34 309.19L31.22 309.62L31.12 310.06L31.03 310.5L30.96 310.98L30.88 311.47L30.82 311.96L30.75 312.47L30.72 313L30.68 313.53L30.65 314.09L30.64 314.66L30.64 315.1L30.64 315.53L30.64 315.98L30.65 316.41L30.68 316.84L30.7 317.28L30.74 317.71L30.78 318.15L30.82 318.58L30.88 319.03L30.93 319.47L31 319.9L31.07 320.34L31.15 320.78L31.24 321.22L31.32 321.65L31.41 322.09L31.51 322.54L31.64 323.03L31.78 323.52L31.92 324L32.07 324.49L32.24 324.94L32.4 325.4L32.57 325.84L32.74 326.27L32.92 326.7L33.11 327.11L33.31 327.51L33.52 327.91L33.72 328.29L33.95 328.67L34.16 329.02L34.39 329.38L34.63 329.72L34.87 330.05L34.48 329.83L34.1 329.59L33.72 329.32L33.36 329.05L33.01 328.75L32.65 328.45L32.32 328.12L32 327.77L31.68 327.41L31.36 327.03L31.06 326.64L30.77 326.22L30.49 325.79L30.22 325.35L29.96 324.88L29.7 324.4L29.46 323.9L29.22 323.38L29.02 322.92L28.82 322.45L28.64 321.98L28.46 321.5L28.31 321.02L28.16 320.55L28.03 320.07L27.9 319.58L27.8 319.1L27.7 318.62L27.63 318.14L27.55 317.65L27.49 317.17L27.45 316.68L27.41 316.19L27.39 315.7L27.37 315.22L27.39 314.72L27.44 313.1L27.55 311.58L27.73 310.15L27.94 308.82L28.23 307.58L28.56 306.43L28.97 305.37L29.41 304.41L29.92 303.54L30.49 302.77L31.1 302.08L31.78 301.5L32.5 301L33.29 300.6L34.14 300.3L35.04 300.08L35.99 299.97L37 299.93L37.35 299.95L37.69 299.98L38.04 300.03Z" id="c5vhLcGVC1"></path><path d="M85.32 445.64C86.22 447.3 86.56 448.94 86.33 450.56C86.09 452.18 85.29 453.37 83.91 454.12C82.67 454.8 80.87 455.09 78.52 454.98C76.41 454.85 74.31 454.71 72.2 454.56C69.68 454.53 67.6 454.96 65.98 455.86C62.81 457.6 62.13 460.12 63.94 463.43C64.6 464.62 65.5 465.39 66.64 465.72C67.78 466.05 68.88 465.92 69.95 465.33C70.28 465.15 70.57 464.95 70.83 464.7C72.78 463.05 74.15 461.99 74.93 461.56C75.78 461.09 76.67 460.8 77.58 460.69C80.87 460.26 83.32 461.51 84.94 464.45C85.72 465.89 85.91 467.17 85.48 468.31C85.14 469.21 84.52 469.92 83.59 470.42C82.24 471.16 80.95 470.97 79.71 469.87C80.55 470.26 81.61 470.13 82.83 469.45C83.59 469.04 84.08 468.42 84.29 467.6C84.49 466.78 84.35 465.93 83.86 465.03C82.68 462.88 80.43 462.72 77.1 464.54C76.53 464.86 74.99 466.06 72.49 468.14C72.21 468.39 71.92 468.59 71.63 468.76C70.22 469.53 68.76 469.48 67.24 468.61C65.89 467.83 64.74 466.57 63.77 464.82C60.42 458.71 60.77 454.55 64.84 452.32C66.22 451.57 68.16 451.19 70.66 451.19C72.8 451.27 74.93 451.37 77.05 451.48C79.43 451.56 81.1 451.32 82.09 450.79C83.07 450.24 83.68 449.39 83.91 448.23C84.14 447.07 83.96 445.96 83.37 444.88C82.81 443.84 81.95 443.2 80.82 442.92C79.93 442.72 79.24 442.76 78.73 443.03C78.2 443.33 77.96 443.81 78 444.47C78.86 444.57 79.45 444.91 79.77 445.52C79.97 445.88 80.01 446.33 79.88 446.86C79.77 447.39 79.45 447.8 78.95 448.07C78.5 448.32 78.05 448.35 77.57 448.2C77.07 448.05 76.69 447.73 76.44 447.25C75.93 446.34 75.81 445.39 76.05 444.43C76.29 443.45 76.75 442.77 77.48 442.39C79.01 441.54 80.49 441.48 81.92 442.17C83.25 442.79 84.38 443.95 85.32 445.64Z" id="b1yUA8AKZk"></path><path d="M85.32 445.64C86.22 447.3 86.56 448.94 86.33 450.56C86.09 452.18 85.29 453.37 83.91 454.12C82.67 454.8 80.87 455.09 78.52 454.98C76.41 454.85 74.31 454.71 72.2 454.56C69.68 454.53 67.6 454.96 65.98 455.86C62.81 457.6 62.13 460.12 63.94 463.43C64.6 464.62 65.5 465.39 66.64 465.72C67.78 466.05 68.88 465.92 69.95 465.33C70.28 465.15 70.57 464.95 70.83 464.7C72.78 463.05 74.15 461.99 74.93 461.56C75.78 461.09 76.67 460.8 77.58 460.69C80.87 460.26 83.32 461.51 84.94 464.45C85.72 465.89 85.91 467.17 85.48 468.31C85.14 469.21 84.52 469.92 83.59 470.42C82.24 471.16 80.95 470.97 79.71 469.87C80.55 470.26 81.61 470.13 82.83 469.45C83.59 469.04 84.08 468.42 84.29 467.6C84.49 466.78 84.35 465.93 83.86 465.03C82.68 462.88 80.43 462.72 77.1 464.54C76.53 464.86 74.99 466.06 72.49 468.14C72.21 468.39 71.92 468.59 71.63 468.76C70.22 469.53 68.76 469.48 67.24 468.61C65.89 467.83 64.74 466.57 63.77 464.82C60.42 458.71 60.77 454.55 64.84 452.32C66.22 451.57 68.16 451.19 70.66 451.19C72.8 451.27 74.93 451.37 77.05 451.48C79.43 451.56 81.1 451.32 82.09 450.79C83.07 450.24 83.68 449.39 83.91 448.23C84.14 447.07 83.96 445.96 83.37 444.88C82.81 443.84 81.95 443.2 80.82 442.92C79.93 442.72 79.24 442.76 78.73 443.03C78.2 443.33 77.96 443.81 78 444.47C78.86 444.57 79.45 444.91 79.77 445.52C79.97 445.88 80.01 446.33 79.88 446.86C79.77 447.39 79.45 447.8 78.95 448.07C78.5 448.32 78.05 448.35 77.57 448.2C77.07 448.05 76.69 447.73 76.44 447.25C75.93 446.34 75.81 445.39 76.05 444.43C76.29 443.45 76.75 442.77 77.48 442.39C79.01 441.54 80.49 441.48 81.92 442.17C83.25 442.79 84.38 443.95 85.32 445.64Z" id="a4hWStCqfy"></path><path d="M171.21 544.9L171.26 545.08L171.3 545.24L171.38 545.6L171.4 545.78L171.44 545.95L171.47 546.13L171.5 546.31L171.53 546.5L171.56 546.67L171.61 547.05L171.62 547.23L171.64 547.42L171.66 547.61L171.68 547.81L171.71 548.19L171.71 548.4L171.72 548.59L171.73 548.79L171.73 548.99L171.75 549.2L171.75 549.8L171.73 550.01L171.73 550.42L171.72 550.64L171.94 550.54L172.15 550.42L172.58 550.22L172.78 550.13L172.99 550.03L173.59 549.77L173.97 549.61L174.16 549.52L174.35 549.45L174.54 549.39L174.72 549.31L175.43 549.06L175.6 549.01L175.77 548.95L176.1 548.85L176.25 548.8L176.42 548.76L176.87 548.65L177.01 548.61L177.17 548.59L177.44 548.54L179.24 549.66L178.81 549.77L178.58 549.83L178.37 549.88L178.15 549.94L177.93 550.01L177.71 550.08L177.48 550.14L177.27 550.22L176.58 550.45L176.37 550.54L175.68 550.8L175.44 550.89L174.76 551.2L174.52 551.3L174.29 551.4L174.05 551.51L173.82 551.63L173.58 551.74L173.35 551.85L173.11 551.98L172.87 552.1L172.39 552.35L172.15 552.49L171.91 552.61L171.92 553.03L171.91 553.44L171.91 553.84L171.9 554.24L171.87 554.63L171.86 555.02L171.82 555.4L171.8 555.78L171.76 556.15L171.66 556.88L171.56 557.59L171.48 557.95L171.42 558.29L171.34 558.62L171.26 558.96L171.18 559.29L171.09 559.61L170.88 560.24L170.78 560.54L170.55 561.15L170.43 561.44L170.3 561.72L170.17 562.01L170.04 562.29L169.9 562.56L169.44 563.35L169.36 563.47L169.29 563.57L169.21 563.68L169.15 563.8L168.77 564.3L168.69 564.39L168.6 564.49L168.38 564.76L168.29 564.85L168.21 564.94L168.12 565.01L167.88 565.25L167.79 565.33L167.7 565.39L167.63 565.47L167.54 565.55L167.1 565.86L166.92 565.96L166.83 566.03L166.74 566.08L166.64 566.13L166.55 566.17L166.46 566.22L166.29 566.29L166.2 566.32L166.11 566.36L165.75 566.46L165.4 566.51L165.31 566.51L165.22 566.52L165.13 566.52L165.06 566.51L164.97 566.51L164.7 566.47L164.63 566.46L164.54 566.45L164.45 566.42L164.37 566.39L164.29 566.37L164.2 566.33L164.12 566.29L164.03 566.27L163.06 567.83L163.02 567.88L162.98 567.94L162.96 567.99L162.93 568.05L162.9 568.1L162.88 568.17L162.85 568.22L162.83 568.28L162.82 568.35L162.79 568.4L162.77 568.52L162.75 568.57L162.74 568.64L162.74 568.7L162.73 568.75L162.73 569L162.74 569.05L162.74 569.12L162.75 569.18L162.75 569.24L162.77 569.31L162.79 569.37L162.82 569.5L162.84 569.56L162.85 569.62L162.93 569.81L162.97 569.88L163.02 570L163.06 570.07L163.08 570.12L163.16 570.24L163.2 570.3L163.23 570.36L163.27 570.41L163.31 570.47L163.39 570.57L163.44 570.64L163.47 570.69L163.63 570.84L163.66 570.89L163.72 570.94L163.78 570.98L163.93 571.13L163.99 571.17L164.04 571.22L164.17 571.3L164.23 571.35L164.61 571.57L164.68 571.6L164.74 571.64L164.8 571.66L164.87 571.7L165.18 571.83L165.25 571.84L165.31 571.87L165.37 571.88L165.44 571.9L165.5 571.92L165.58 571.93L165.77 571.97L165.83 571.97L165.91 571.98L165.97 571.98L166.03 571.99L166.5 571.99L166.58 571.98L166.64 571.97L166.7 571.97L166.83 571.94L166.88 571.93L166.95 571.9L167.01 571.89L167.07 571.87L167.12 571.84L167.19 571.83L167.29 571.78L167.34 571.74L167.4 571.71L167.45 571.68L167.5 571.65L167.55 571.61L167.59 571.57L167.69 571.5L167.73 571.45L167.78 571.41L167.82 571.36L167.87 571.32L167.95 571.22L168 571.17L168.03 571.11L168.11 571L177.47 556.11L180.66 558.11L171.3 573.01L171.25 573.08L171.21 573.15L171.16 573.22L171.12 573.28L171.09 573.36L171.06 573.42L171.02 573.49L170.99 573.56L170.86 573.88L170.83 573.93L170.82 573.99L170.8 574.06L170.78 574.11L170.77 574.17L170.76 574.22L170.74 574.29L170.74 574.34L170.73 574.39L170.73 574.5L170.72 574.55L170.73 574.59L170.73 574.69L170.74 574.74L170.74 574.79L170.76 574.83L170.77 574.88L170.78 574.92L170.8 574.97L170.82 575.01L170.83 575.06L170.86 575.1L170.88 575.15L170.91 575.18L170.93 575.24L170.97 575.29L171 575.32L171.07 575.43L171.11 575.46L171.15 575.51L171.34 575.7L171.39 575.74L171.49 575.84L171.56 575.89L171.61 575.94L171.67 575.98L171.8 576.08L171.87 576.13L171.94 576.18L172.01 576.24L172.09 576.27L172.24 576.37L172.38 576.46L172.53 576.55L172.67 576.63L173.09 576.82L173.21 576.86L173.35 576.91L173.48 576.93L173.61 576.97L173.73 576.98L173.85 577.01L174.2 577.01L174.32 577L174.54 576.94L174.65 576.92L174.76 576.87L174.86 576.83L174.96 576.78L175.06 576.72L175.15 576.65L175.25 576.58L175.52 576.31L175.61 576.21L175.68 576.11L175.77 575.99L175.85 575.87L185.21 560.97L188.4 562.97L179.04 577.87L178.96 578.01L178.89 578.14L178.81 578.27L178.75 578.4L178.7 578.53L178.65 578.64L178.6 578.77L178.56 578.9L178.48 579.24L178.47 579.35L178.47 579.47L178.46 579.57L178.47 579.68L178.5 579.88L178.52 579.98L178.56 580.09L178.58 580.17L178.64 580.28L178.74 580.45L178.86 580.63L178.94 580.72L179.1 580.88L179.19 580.96L179.29 581.04L179.41 581.11L179.51 581.19L179.66 581.26L179.7 581.29L179.85 581.37L179.9 581.38L179.95 581.4L179.99 581.42L180.04 581.43L180.09 581.45L180.24 581.49L180.29 581.49L180.33 581.5L180.38 581.52L180.48 581.52L180.53 581.53L180.74 581.53L180.79 581.52L180.89 581.52L180.99 581.49L181.04 581.49L181.09 581.48L180.99 581.56L180.89 581.62L180.79 581.67L180.67 581.73L180.57 581.78L180.23 581.9L180 581.95L179.88 581.96L179.76 581.97L179.38 581.97L179.24 581.96L179.12 581.94L178.98 581.91L178.85 581.88L178.71 581.86L178.56 581.81L178.42 581.77L178.28 581.72L178.13 581.66L177.98 581.61L177.84 581.53L177.67 581.45L177.37 581.3L177.2 581.21L177.05 581.11L176.89 581.01L176.71 580.91L176.63 580.85L176.55 580.8L176.47 580.74L176.39 580.68L176.32 580.63L176.25 580.58L176.18 580.53L176.11 580.47L175.92 580.31L175.86 580.25L175.8 580.2L175.65 580.05L175.6 579.98L175.49 579.88L175.42 579.78L175.37 579.72L175.33 579.67L175.3 579.62L175.23 579.52L175.15 579.36L175.13 579.3L175.1 579.25L175.09 579.2L175.06 579.15L175.05 579.09L175.03 579.03L174.99 578.84L174.97 578.79L174.96 578.72L174.96 578.65L174.94 578.53L174.94 578.39L174.92 578.31L174.92 578.01L174.94 577.93L174.94 577.86L174.95 577.77L174.95 577.69L174.96 577.6L174.97 577.53L174.97 577.44L175 577.26L175.03 577.17L175.04 577.08L175.05 576.98L174.91 577.07L174.61 577.22L174.46 577.29L174.3 577.34L174.14 577.39L173.99 577.44L173.83 577.48L173.67 577.51L173.51 577.54L173.35 577.55L173.02 577.58L172.86 577.58L172.7 577.57L172.52 577.55L172.35 577.53L172.18 577.5L172.01 577.48L171.83 577.44L171.48 577.34L171.12 577.21L170.95 577.13L170.76 577.06L170.58 576.98L170.39 576.88L170.2 576.79L170.01 576.69L169.83 576.58L169.64 576.46L169.45 576.34L169.28 576.22L169.11 576.1L168.95 575.98L168.64 575.73L168.36 575.48L168.11 575.22L168 575.1L167.89 574.96L167.79 574.83L167.62 574.55L167.54 574.41L167.46 574.29L167.4 574.15L167.34 573.99L167.24 573.72L167.2 573.58L167.15 573.27L167.14 573.13L167.12 572.98L167.12 572.68L167.15 572.37L167.17 572.21L167.21 572.06L167.03 572.16L166.86 572.23L166.77 572.28L166.69 572.32L166.6 572.36L166.51 572.39L166.43 572.42L166.35 572.46L166.26 572.49L166.19 572.51L166.1 572.54L166.02 572.56L165.93 572.59L165.86 572.61L165.78 572.63L165.69 572.65L165.54 572.68L165.45 572.69L165.37 572.7L165.3 572.7L165.22 572.71L165.15 572.71L165.07 572.73L164.92 572.73L164.84 572.71L164.69 572.71L164.63 572.7L164.55 572.7L164.49 572.69L164.42 572.69L164.35 572.68L164.29 572.66L164.13 572.64L164.07 572.61L163.99 572.6L163.84 572.55L163.77 572.54L163.61 572.49L163.54 572.45L163.45 572.42L163.37 572.39L163.3 572.36L163.21 572.32L163.13 572.28L163.04 572.25L162.97 572.21L162.88 572.17L162.8 572.12L162.71 572.08L162.18 571.78L162.09 571.71L161.89 571.59L161.8 571.52L161.7 571.46L161.61 571.38L161.44 571.26L161.35 571.18L161.27 571.12L161.18 571.04L161.11 570.98L161.03 570.9L160.94 570.83L160.88 570.75L160.73 570.6L160.66 570.52L160.59 570.45L160.46 570.3L160.4 570.21L160.33 570.13L160.27 570.04L160.22 569.97L160.17 569.88L160.11 569.8L159.95 569.54L159.92 569.45L159.87 569.36L159.83 569.27L159.78 569.17L159.74 569.05L159.69 568.95L159.66 568.85L159.62 568.74L159.6 568.64L159.56 568.54L159.55 568.42L159.52 568.32L159.51 568.22L159.5 568.1L159.49 568L159.49 567.59L159.52 567.28L159.55 567.17L159.62 566.86L159.74 566.56L159.79 566.46L159.84 566.34L159.94 566.14L161.02 564.42L160.94 564.36L160.87 564.3L160.71 564.18L160.52 563.99L160.46 563.91L160.4 563.85L160.19 563.54L160.16 563.47L160.08 563.29L160.04 563.22L160.02 563.13L159.98 563.04L159.95 562.94L159.93 562.85L159.92 562.75L159.89 562.66L159.85 562.35L159.85 562.14L159.84 562.03L159.85 561.91L159.85 561.8L159.87 561.68L159.87 561.58L159.88 561.48L159.89 561.37L159.9 561.27L159.93 561.15L159.94 561.05L159.97 560.95L160.02 560.72L160.04 560.62L160.07 560.51L160.11 560.4L160.13 560.29L160.17 560.18L160.21 560.07L160.25 559.96L160.3 559.85L160.33 559.73L160.38 559.63L160.42 559.52L160.52 559.29L160.59 559.18L160.64 559.06L160.7 558.95L160.75 558.83L160.88 558.61L160.95 558.49L161.08 558.26L161.16 558.15L161.27 557.96L161.38 557.78L161.51 557.6L161.64 557.44L161.75 557.26L161.89 557.1L162.02 556.92L162.14 556.76L162.56 556.26L162.7 556.11L162.85 555.95L162.99 555.79L163.3 555.49L163.46 555.34L163.61 555.2L163.78 555.05L163.94 554.91L164.11 554.76L164.27 554.62L164.45 554.48L164.61 554.34L164.79 554.21L164.97 554.07L165.15 553.94L165.53 553.69L165.7 553.56L165.91 553.44L166.1 553.31L166.22 553.24L166.38 553.16L166.46 553.11L166.55 553.07L166.64 553.02L166.74 552.97L166.86 552.91L166.97 552.86L167.08 552.79L167.46 552.6L167.6 552.54L167.76 552.46L167.91 552.4L168.06 552.32L168.39 552.17L168.55 552.08L168.73 552.01L169.3 551.74L169.5 551.64L169.71 551.55L170.35 551.25L170.58 551.15L170.82 551.04L170.81 550.79L170.8 550.52L170.78 550.27L170.77 550.03L170.76 549.78L170.73 549.52L170.71 549.04L170.68 548.8L170.67 548.56L170.64 548.33L170.63 548.09L170.61 547.87L170.59 547.64L170.54 547.18L170.49 546.75L170.47 546.52L170.42 546.09L170.39 545.89L170.36 545.67L170.33 545.47L170.3 545.27L170.26 545.07L170.24 544.86L170.2 544.66L170.17 544.47L170.1 544.09L170.07 543.9L171.14 544.57L171.21 544.9ZM168.69 554.41L167.86 555L167.16 555.5L166.62 555.96L165.98 556.54L165.36 557.19L164.75 557.93L164.15 558.74L163.55 559.66L163.18 560.29L162.89 560.91L162.68 561.52L162.55 562.09L162.5 562.66L162.55 563.24L162.7 563.76L162.96 564.23L163.3 564.62L163.74 564.96L164.23 565.2L164.74 565.32L165.27 565.31L165.83 565.18L166.41 564.93L166.91 564.62L167.39 564.27L167.82 563.85L168.22 563.37L168.6 562.82L169.36 561.37L169.97 559.66L170.42 557.71L170.71 555.53L170.83 553.1L169.69 553.78L168.69 554.41Z" id="h1PsKGlcoO"></path><path d="M171.21 544.9L171.26 545.08L171.3 545.24L171.38 545.6L171.4 545.78L171.44 545.95L171.47 546.13L171.5 546.31L171.53 546.5L171.56 546.67L171.61 547.05L171.62 547.23L171.64 547.42L171.66 547.61L171.68 547.81L171.71 548.19L171.71 548.4L171.72 548.59L171.73 548.79L171.73 548.99L171.75 549.2L171.75 549.8L171.73 550.01L171.73 550.42L171.72 550.64L171.94 550.54L172.15 550.42L172.58 550.22L172.78 550.13L172.99 550.03L173.59 549.77L173.97 549.61L174.16 549.52L174.35 549.45L174.54 549.39L174.72 549.31L175.43 549.06L175.6 549.01L175.77 548.95L176.1 548.85L176.25 548.8L176.42 548.76L176.87 548.65L177.01 548.61L177.17 548.59L177.44 548.54L179.24 549.66L178.81 549.77L178.58 549.83L178.37 549.88L178.15 549.94L177.93 550.01L177.71 550.08L177.48 550.14L177.27 550.22L176.58 550.45L176.37 550.54L175.68 550.8L175.44 550.89L174.76 551.2L174.52 551.3L174.29 551.4L174.05 551.51L173.82 551.63L173.58 551.74L173.35 551.85L173.11 551.98L172.87 552.1L172.39 552.35L172.15 552.49L171.91 552.61L171.92 553.03L171.91 553.44L171.91 553.84L171.9 554.24L171.87 554.63L171.86 555.02L171.82 555.4L171.8 555.78L171.76 556.15L171.66 556.88L171.56 557.59L171.48 557.95L171.42 558.29L171.34 558.62L171.26 558.96L171.18 559.29L171.09 559.61L170.88 560.24L170.78 560.54L170.55 561.15L170.43 561.44L170.3 561.72L170.17 562.01L170.04 562.29L169.9 562.56L169.44 563.35L169.36 563.47L169.29 563.57L169.21 563.68L169.15 563.8L168.77 564.3L168.69 564.39L168.6 564.49L168.38 564.76L168.29 564.85L168.21 564.94L168.12 565.01L167.88 565.25L167.79 565.33L167.7 565.39L167.63 565.47L167.54 565.55L167.1 565.86L166.92 565.96L166.83 566.03L166.74 566.08L166.64 566.13L166.55 566.17L166.46 566.22L166.29 566.29L166.2 566.32L166.11 566.36L165.75 566.46L165.4 566.51L165.31 566.51L165.22 566.52L165.13 566.52L165.06 566.51L164.97 566.51L164.7 566.47L164.63 566.46L164.54 566.45L164.45 566.42L164.37 566.39L164.29 566.37L164.2 566.33L164.12 566.29L164.03 566.27L163.06 567.83L163.02 567.88L162.98 567.94L162.96 567.99L162.93 568.05L162.9 568.1L162.88 568.17L162.85 568.22L162.83 568.28L162.82 568.35L162.79 568.4L162.77 568.52L162.75 568.57L162.74 568.64L162.74 568.7L162.73 568.75L162.73 569L162.74 569.05L162.74 569.12L162.75 569.18L162.75 569.24L162.77 569.31L162.79 569.37L162.82 569.5L162.84 569.56L162.85 569.62L162.93 569.81L162.97 569.88L163.02 570L163.06 570.07L163.08 570.12L163.16 570.24L163.2 570.3L163.23 570.36L163.27 570.41L163.31 570.47L163.39 570.57L163.44 570.64L163.47 570.69L163.63 570.84L163.66 570.89L163.72 570.94L163.78 570.98L163.93 571.13L163.99 571.17L164.04 571.22L164.17 571.3L164.23 571.35L164.61 571.57L164.68 571.6L164.74 571.64L164.8 571.66L164.87 571.7L165.18 571.83L165.25 571.84L165.31 571.87L165.37 571.88L165.44 571.9L165.5 571.92L165.58 571.93L165.77 571.97L165.83 571.97L165.91 571.98L165.97 571.98L166.03 571.99L166.5 571.99L166.58 571.98L166.64 571.97L166.7 571.97L166.83 571.94L166.88 571.93L166.95 571.9L167.01 571.89L167.07 571.87L167.12 571.84L167.19 571.83L167.29 571.78L167.34 571.74L167.4 571.71L167.45 571.68L167.5 571.65L167.55 571.61L167.59 571.57L167.69 571.5L167.73 571.45L167.78 571.41L167.82 571.36L167.87 571.32L167.95 571.22L168 571.17L168.03 571.11L168.11 571L177.47 556.11L180.66 558.11L171.3 573.01L171.25 573.08L171.21 573.15L171.16 573.22L171.12 573.28L171.09 573.36L171.06 573.42L171.02 573.49L170.99 573.56L170.86 573.88L170.83 573.93L170.82 573.99L170.8 574.06L170.78 574.11L170.77 574.17L170.76 574.22L170.74 574.29L170.74 574.34L170.73 574.39L170.73 574.5L170.72 574.55L170.73 574.59L170.73 574.69L170.74 574.74L170.74 574.79L170.76 574.83L170.77 574.88L170.78 574.92L170.8 574.97L170.82 575.01L170.83 575.06L170.86 575.1L170.88 575.15L170.91 575.18L170.93 575.24L170.97 575.29L171 575.32L171.07 575.43L171.11 575.46L171.15 575.51L171.34 575.7L171.39 575.74L171.49 575.84L171.56 575.89L171.61 575.94L171.67 575.98L171.8 576.08L171.87 576.13L171.94 576.18L172.01 576.24L172.09 576.27L172.24 576.37L172.38 576.46L172.53 576.55L172.67 576.63L173.09 576.82L173.21 576.86L173.35 576.91L173.48 576.93L173.61 576.97L173.73 576.98L173.85 577.01L174.2 577.01L174.32 577L174.54 576.94L174.65 576.92L174.76 576.87L174.86 576.83L174.96 576.78L175.06 576.72L175.15 576.65L175.25 576.58L175.52 576.31L175.61 576.21L175.68 576.11L175.77 575.99L175.85 575.87L185.21 560.97L188.4 562.97L179.04 577.87L178.96 578.01L178.89 578.14L178.81 578.27L178.75 578.4L178.7 578.53L178.65 578.64L178.6 578.77L178.56 578.9L178.48 579.24L178.47 579.35L178.47 579.47L178.46 579.57L178.47 579.68L178.5 579.88L178.52 579.98L178.56 580.09L178.58 580.17L178.64 580.28L178.74 580.45L178.86 580.63L178.94 580.72L179.1 580.88L179.19 580.96L179.29 581.04L179.41 581.11L179.51 581.19L179.66 581.26L179.7 581.29L179.85 581.37L179.9 581.38L179.95 581.4L179.99 581.42L180.04 581.43L180.09 581.45L180.24 581.49L180.29 581.49L180.33 581.5L180.38 581.52L180.48 581.52L180.53 581.53L180.74 581.53L180.79 581.52L180.89 581.52L180.99 581.49L181.04 581.49L181.09 581.48L180.99 581.56L180.89 581.62L180.79 581.67L180.67 581.73L180.57 581.78L180.23 581.9L180 581.95L179.88 581.96L179.76 581.97L179.38 581.97L179.24 581.96L179.12 581.94L178.98 581.91L178.85 581.88L178.71 581.86L178.56 581.81L178.42 581.77L178.28 581.72L178.13 581.66L177.98 581.61L177.84 581.53L177.67 581.45L177.37 581.3L177.2 581.21L177.05 581.11L176.89 581.01L176.71 580.91L176.63 580.85L176.55 580.8L176.47 580.74L176.39 580.68L176.32 580.63L176.25 580.58L176.18 580.53L176.11 580.47L175.92 580.31L175.86 580.25L175.8 580.2L175.65 580.05L175.6 579.98L175.49 579.88L175.42 579.78L175.37 579.72L175.33 579.67L175.3 579.62L175.23 579.52L175.15 579.36L175.13 579.3L175.1 579.25L175.09 579.2L175.06 579.15L175.05 579.09L175.03 579.03L174.99 578.84L174.97 578.79L174.96 578.72L174.96 578.65L174.94 578.53L174.94 578.39L174.92 578.31L174.92 578.01L174.94 577.93L174.94 577.86L174.95 577.77L174.95 577.69L174.96 577.6L174.97 577.53L174.97 577.44L175 577.26L175.03 577.17L175.04 577.08L175.05 576.98L174.91 577.07L174.61 577.22L174.46 577.29L174.3 577.34L174.14 577.39L173.99 577.44L173.83 577.48L173.67 577.51L173.51 577.54L173.35 577.55L173.02 577.58L172.86 577.58L172.7 577.57L172.52 577.55L172.35 577.53L172.18 577.5L172.01 577.48L171.83 577.44L171.48 577.34L171.12 577.21L170.95 577.13L170.76 577.06L170.58 576.98L170.39 576.88L170.2 576.79L170.01 576.69L169.83 576.58L169.64 576.46L169.45 576.34L169.28 576.22L169.11 576.1L168.95 575.98L168.64 575.73L168.36 575.48L168.11 575.22L168 575.1L167.89 574.96L167.79 574.83L167.62 574.55L167.54 574.41L167.46 574.29L167.4 574.15L167.34 573.99L167.24 573.72L167.2 573.58L167.15 573.27L167.14 573.13L167.12 572.98L167.12 572.68L167.15 572.37L167.17 572.21L167.21 572.06L167.03 572.16L166.86 572.23L166.77 572.28L166.69 572.32L166.6 572.36L166.51 572.39L166.43 572.42L166.35 572.46L166.26 572.49L166.19 572.51L166.1 572.54L166.02 572.56L165.93 572.59L165.86 572.61L165.78 572.63L165.69 572.65L165.54 572.68L165.45 572.69L165.37 572.7L165.3 572.7L165.22 572.71L165.15 572.71L165.07 572.73L164.92 572.73L164.84 572.71L164.69 572.71L164.63 572.7L164.55 572.7L164.49 572.69L164.42 572.69L164.35 572.68L164.29 572.66L164.13 572.64L164.07 572.61L163.99 572.6L163.84 572.55L163.77 572.54L163.61 572.49L163.54 572.45L163.45 572.42L163.37 572.39L163.3 572.36L163.21 572.32L163.13 572.28L163.04 572.25L162.97 572.21L162.88 572.17L162.8 572.12L162.71 572.08L162.18 571.78L162.09 571.71L161.89 571.59L161.8 571.52L161.7 571.46L161.61 571.38L161.44 571.26L161.35 571.18L161.27 571.12L161.18 571.04L161.11 570.98L161.03 570.9L160.94 570.83L160.88 570.75L160.73 570.6L160.66 570.52L160.59 570.45L160.46 570.3L160.4 570.21L160.33 570.13L160.27 570.04L160.22 569.97L160.17 569.88L160.11 569.8L159.95 569.54L159.92 569.45L159.87 569.36L159.83 569.27L159.78 569.17L159.74 569.05L159.69 568.95L159.66 568.85L159.62 568.74L159.6 568.64L159.56 568.54L159.55 568.42L159.52 568.32L159.51 568.22L159.5 568.1L159.49 568L159.49 567.59L159.52 567.28L159.55 567.17L159.62 566.86L159.74 566.56L159.79 566.46L159.84 566.34L159.94 566.14L161.02 564.42L160.94 564.36L160.87 564.3L160.71 564.18L160.52 563.99L160.46 563.91L160.4 563.85L160.19 563.54L160.16 563.47L160.08 563.29L160.04 563.22L160.02 563.13L159.98 563.04L159.95 562.94L159.93 562.85L159.92 562.75L159.89 562.66L159.85 562.35L159.85 562.14L159.84 562.03L159.85 561.91L159.85 561.8L159.87 561.68L159.87 561.58L159.88 561.48L159.89 561.37L159.9 561.27L159.93 561.15L159.94 561.05L159.97 560.95L160.02 560.72L160.04 560.62L160.07 560.51L160.11 560.4L160.13 560.29L160.17 560.18L160.21 560.07L160.25 559.96L160.3 559.85L160.33 559.73L160.38 559.63L160.42 559.52L160.52 559.29L160.59 559.18L160.64 559.06L160.7 558.95L160.75 558.83L160.88 558.61L160.95 558.49L161.08 558.26L161.16 558.15L161.27 557.96L161.38 557.78L161.51 557.6L161.64 557.44L161.75 557.26L161.89 557.1L162.02 556.92L162.14 556.76L162.56 556.26L162.7 556.11L162.85 555.95L162.99 555.79L163.3 555.49L163.46 555.34L163.61 555.2L163.78 555.05L163.94 554.91L164.11 554.76L164.27 554.62L164.45 554.48L164.61 554.34L164.79 554.21L164.97 554.07L165.15 553.94L165.53 553.69L165.7 553.56L165.91 553.44L166.1 553.31L166.22 553.24L166.38 553.16L166.46 553.11L166.55 553.07L166.64 553.02L166.74 552.97L166.86 552.91L166.97 552.86L167.08 552.79L167.46 552.6L167.6 552.54L167.76 552.46L167.91 552.4L168.06 552.32L168.39 552.17L168.55 552.08L168.73 552.01L169.3 551.74L169.5 551.64L169.71 551.55L170.35 551.25L170.58 551.15L170.82 551.04L170.81 550.79L170.8 550.52L170.78 550.27L170.77 550.03L170.76 549.78L170.73 549.52L170.71 549.04L170.68 548.8L170.67 548.56L170.64 548.33L170.63 548.09L170.61 547.87L170.59 547.64L170.54 547.18L170.49 546.75L170.47 546.52L170.42 546.09L170.39 545.89L170.36 545.67L170.33 545.47L170.3 545.27L170.26 545.07L170.24 544.86L170.2 544.66L170.17 544.47L170.1 544.09L170.07 543.9L171.14 544.57L171.21 544.9ZM168.69 554.41L167.86 555L167.16 555.5L166.62 555.96L165.98 556.54L165.36 557.19L164.75 557.93L164.15 558.74L163.55 559.66L163.18 560.29L162.89 560.91L162.68 561.52L162.55 562.09L162.5 562.66L162.55 563.24L162.7 563.76L162.96 564.23L163.3 564.62L163.74 564.96L164.23 565.2L164.74 565.32L165.27 565.31L165.83 565.18L166.41 564.93L166.91 564.62L167.39 564.27L167.82 563.85L168.22 563.37L168.6 562.82L169.36 561.37L169.97 559.66L170.42 557.71L170.71 555.53L170.83 553.1L169.69 553.78L168.69 554.41Z" id="b2d6T2FkZG"></path><path d="M313.31 598.89L313.09 599.03L312.88 599.19L312.67 599.34L312.47 599.5L312.28 599.68L312.09 599.86L311.9 600.05L311.71 600.25L311.53 600.45L311.36 600.67L311.18 600.88L311 601.11L310.84 601.35L310.68 601.6L310.52 601.86L310.37 602.11L310.22 602.39L310.08 602.67L309.92 602.95L309.78 603.24L309.67 603.52L309.56 603.78L309.44 604.06L309.33 604.34L309.23 604.62L309.14 604.91L309.04 605.19L308.96 605.48L308.87 605.77L308.8 606.06L308.72 606.37L308.66 606.66L308.59 606.96L308.54 607.27L308.49 607.57L308.44 607.89L308.4 608.19L308.37 608.51L308.34 608.82L308.32 609.14L308.29 609.46L308.28 609.79L308.28 610.1L308.28 610.42L308.28 610.74L308.3 611.05L308.33 611.37L308.37 611.67L308.4 611.98L308.46 612.28L308.52 612.59L308.58 612.89L308.66 613.19L308.75 613.48L308.84 613.78L308.95 614.08L309.05 614.36L309.18 614.65L309.3 614.94L309.44 615.22L309.58 615.51L309.73 615.79L309.9 616.07L310.08 616.33L310.27 616.64L310.47 616.92L310.68 617.2L310.9 617.45L311.11 617.69L311.33 617.92L311.56 618.15L311.8 618.35L312.04 618.54L312.28 618.72L312.53 618.88L312.79 619.03L313.04 619.17L313.31 619.3L313.57 619.4L313.85 619.5L314.13 619.59L314.41 619.65L314.7 619.72L314.99 619.77L315.29 619.79L315.6 619.82L315.89 619.82L316.17 619.8L316.46 619.78L316.74 619.75L317.02 619.7L317.28 619.64L317.56 619.55L317.83 619.46L318.08 619.36L318.35 619.25L318.6 619.11L318.85 618.97L319.09 618.8L319.35 618.64L319.59 618.45L319.83 618.25L320.06 618.03L320.28 617.8L320.51 617.58L320.74 617.31L320.96 617.04L321.17 616.76L321.36 616.5L321.54 616.23L321.72 615.97L321.88 615.69L322.03 615.41L322.18 615.14L322.32 614.85L322.45 614.57L322.58 614.3L322.69 614L322.79 613.71L322.89 613.42L322.98 613.13L323.07 612.83L323.13 612.53L323.21 612.23L323.26 611.93L323.31 611.62L323.35 611.31L323.39 611L323.41 610.69L323.43 610.37L323.44 610.03L323.44 609.67L323.44 609.34L323.44 609L323.43 608.67L323.41 608.33L323.39 608.01L323.36 607.68L323.32 607.37L323.29 607.05L323.24 606.73L323.18 606.43L323.13 606.13L323.07 605.82L323.01 605.52L322.93 605.23L322.86 604.94L322.78 604.64L322.69 604.37L322.59 604.09L322.5 603.81L322.39 603.53L322.27 603.25L322.16 602.97L322.03 602.69L321.89 602.43L321.77 602.17L321.61 601.92L321.48 601.67L321.32 601.44L321.17 601.2L321.01 600.98L320.84 600.76L320.66 600.55L320.49 600.35L320.31 600.15L320.12 599.96L319.93 599.78L319.74 599.6L319.54 599.44L319.33 599.27L319.12 599.12L318.9 598.97L318.69 598.83L327.74 599.19L327.63 602.01L323.72 601.86L324.05 602.11L324.38 602.39L324.68 602.68L324.97 602.97L325.24 603.29L325.49 603.62L325.73 603.95L325.96 604.3L326.16 604.67L326.35 605.04L326.52 605.43L326.68 605.83L326.82 606.24L326.93 606.67L327.05 607.1L327.12 607.56L327.2 608.01L327.25 608.49L327.29 608.98L327.31 609.48L327.31 609.99L327.31 610.52L327.29 610.95L327.25 611.38L327.2 611.81L327.14 612.22L327.06 612.62L326.97 613.02L326.87 613.41L326.76 613.79L326.63 614.17L326.49 614.52L326.34 614.88L326.17 615.23L325.98 615.56L325.79 615.89L325.59 616.22L325.38 616.54L325.14 616.84L324.89 617.13L324.64 617.42L324.36 617.7L324.08 617.98L323.79 618.25L323.49 618.49L323.18 618.72L322.87 618.93L322.55 619.15L322.22 619.34L321.89 619.51L321.55 619.69L321.2 619.84L320.84 619.99L320.47 620.13L320.11 620.25L319.73 620.36L319.35 620.46L318.95 620.54L318.55 620.62L318.14 620.68L317.73 620.73L317.31 620.77L316.88 620.79L316.45 620.81L316 620.81L315.56 620.79L315.12 620.77L314.67 620.73L314.24 620.69L313.81 620.63L313.41 620.56L312.99 620.48L312.6 620.39L312.2 620.29L311.81 620.17L311.43 620.05L311.06 619.91L310.7 619.75L310.34 619.59L309.99 619.41L309.65 619.23L309.32 619.03L308.99 618.83L308.67 618.6L308.35 618.37L308.05 618.13L307.76 617.88L307.47 617.61L307.18 617.32L306.9 617.03L306.64 616.73L306.39 616.41L306.16 616.09L305.95 615.76L305.74 615.43L305.55 615.09L305.38 614.75L305.21 614.4L305.07 614.04L304.93 613.67L304.82 613.31L304.72 612.93L304.63 612.53L304.55 612.14L304.49 611.74L304.44 611.33L304.41 610.91L304.39 610.5L304.39 610.06L304.39 609.63L304.43 609.14L304.47 608.65L304.53 608.17L304.62 607.7L304.71 607.25L304.82 606.81L304.96 606.37L305.11 605.95L305.28 605.54L305.47 605.15L305.67 604.76L305.88 604.39L306.12 604.02L306.38 603.68L306.64 603.34L306.94 603.01L307.24 602.69L307.57 602.39L307.91 602.1L308.27 601.82L308.65 601.54L309.04 601.29L304.72 601.12L304.83 598.3L313.74 598.64L313.52 598.77L313.31 598.89Z" id="azO9sWteP"></path><path d="M313.31 598.89L313.09 599.03L312.88 599.19L312.67 599.34L312.47 599.5L312.28 599.68L312.09 599.86L311.9 600.05L311.71 600.25L311.53 600.45L311.36 600.67L311.18 600.88L311 601.11L310.84 601.35L310.68 601.6L310.52 601.86L310.37 602.11L310.22 602.39L310.08 602.67L309.92 602.95L309.78 603.24L309.67 603.52L309.56 603.78L309.44 604.06L309.33 604.34L309.23 604.62L309.14 604.91L309.04 605.19L308.96 605.48L308.87 605.77L308.8 606.06L308.72 606.37L308.66 606.66L308.59 606.96L308.54 607.27L308.49 607.57L308.44 607.89L308.4 608.19L308.37 608.51L308.34 608.82L308.32 609.14L308.29 609.46L308.28 609.79L308.28 610.1L308.28 610.42L308.28 610.74L308.3 611.05L308.33 611.37L308.37 611.67L308.4 611.98L308.46 612.28L308.52 612.59L308.58 612.89L308.66 613.19L308.75 613.48L308.84 613.78L308.95 614.08L309.05 614.36L309.18 614.65L309.3 614.94L309.44 615.22L309.58 615.51L309.73 615.79L309.9 616.07L310.08 616.33L310.27 616.64L310.47 616.92L310.68 617.2L310.9 617.45L311.11 617.69L311.33 617.92L311.56 618.15L311.8 618.35L312.04 618.54L312.28 618.72L312.53 618.88L312.79 619.03L313.04 619.17L313.31 619.3L313.57 619.4L313.85 619.5L314.13 619.59L314.41 619.65L314.7 619.72L314.99 619.77L315.29 619.79L315.6 619.82L315.89 619.82L316.17 619.8L316.46 619.78L316.74 619.75L317.02 619.7L317.28 619.64L317.56 619.55L317.83 619.46L318.08 619.36L318.35 619.25L318.6 619.11L318.85 618.97L319.09 618.8L319.35 618.64L319.59 618.45L319.83 618.25L320.06 618.03L320.28 617.8L320.51 617.58L320.74 617.31L320.96 617.04L321.17 616.76L321.36 616.5L321.54 616.23L321.72 615.97L321.88 615.69L322.03 615.41L322.18 615.14L322.32 614.85L322.45 614.57L322.58 614.3L322.69 614L322.79 613.71L322.89 613.42L322.98 613.13L323.07 612.83L323.13 612.53L323.21 612.23L323.26 611.93L323.31 611.62L323.35 611.31L323.39 611L323.41 610.69L323.43 610.37L323.44 610.03L323.44 609.67L323.44 609.34L323.44 609L323.43 608.67L323.41 608.33L323.39 608.01L323.36 607.68L323.32 607.37L323.29 607.05L323.24 606.73L323.18 606.43L323.13 606.13L323.07 605.82L323.01 605.52L322.93 605.23L322.86 604.94L322.78 604.64L322.69 604.37L322.59 604.09L322.5 603.81L322.39 603.53L322.27 603.25L322.16 602.97L322.03 602.69L321.89 602.43L321.77 602.17L321.61 601.92L321.48 601.67L321.32 601.44L321.17 601.2L321.01 600.98L320.84 600.76L320.66 600.55L320.49 600.35L320.31 600.15L320.12 599.96L319.93 599.78L319.74 599.6L319.54 599.44L319.33 599.27L319.12 599.12L318.9 598.97L318.69 598.83L327.74 599.19L327.63 602.01L323.72 601.86L324.05 602.11L324.38 602.39L324.68 602.68L324.97 602.97L325.24 603.29L325.49 603.62L325.73 603.95L325.96 604.3L326.16 604.67L326.35 605.04L326.52 605.43L326.68 605.83L326.82 606.24L326.93 606.67L327.05 607.1L327.12 607.56L327.2 608.01L327.25 608.49L327.29 608.98L327.31 609.48L327.31 609.99L327.31 610.52L327.29 610.95L327.25 611.38L327.2 611.81L327.14 612.22L327.06 612.62L326.97 613.02L326.87 613.41L326.76 613.79L326.63 614.17L326.49 614.52L326.34 614.88L326.17 615.23L325.98 615.56L325.79 615.89L325.59 616.22L325.38 616.54L325.14 616.84L324.89 617.13L324.64 617.42L324.36 617.7L324.08 617.98L323.79 618.25L323.49 618.49L323.18 618.72L322.87 618.93L322.55 619.15L322.22 619.34L321.89 619.51L321.55 619.69L321.2 619.84L320.84 619.99L320.47 620.13L320.11 620.25L319.73 620.36L319.35 620.46L318.95 620.54L318.55 620.62L318.14 620.68L317.73 620.73L317.31 620.77L316.88 620.79L316.45 620.81L316 620.81L315.56 620.79L315.12 620.77L314.67 620.73L314.24 620.69L313.81 620.63L313.41 620.56L312.99 620.48L312.6 620.39L312.2 620.29L311.81 620.17L311.43 620.05L311.06 619.91L310.7 619.75L310.34 619.59L309.99 619.41L309.65 619.23L309.32 619.03L308.99 618.83L308.67 618.6L308.35 618.37L308.05 618.13L307.76 617.88L307.47 617.61L307.18 617.32L306.9 617.03L306.64 616.73L306.39 616.41L306.16 616.09L305.95 615.76L305.74 615.43L305.55 615.09L305.38 614.75L305.21 614.4L305.07 614.04L304.93 613.67L304.82 613.31L304.72 612.93L304.63 612.53L304.55 612.14L304.49 611.74L304.44 611.33L304.41 610.91L304.39 610.5L304.39 610.06L304.39 609.63L304.43 609.14L304.47 608.65L304.53 608.17L304.62 607.7L304.71 607.25L304.82 606.81L304.96 606.37L305.11 605.95L305.28 605.54L305.47 605.15L305.67 604.76L305.88 604.39L306.12 604.02L306.38 603.68L306.64 603.34L306.94 603.01L307.24 602.69L307.57 602.39L307.91 602.1L308.27 601.82L308.65 601.54L309.04 601.29L304.72 601.12L304.83 598.3L313.74 598.64L313.52 598.77L313.31 598.89Z" id="a7R4HKNhy"></path><path d="M438.6 573.83C438.11 572.89 438.02 571.97 438.31 571.06C438.73 569.86 439.77 568.84 441.44 567.97C446.17 565.52 449.66 566.5 451.94 570.88C452.71 572.37 458.87 584.24 459.64 585.73C460.43 587.24 461.64 587.57 463.29 586.71C464.92 585.86 465.34 584.7 464.56 583.18C464.02 582.15 461.33 576.98 456.48 567.69C456.81 567.51 459.52 566.11 459.86 565.94C464.68 575.24 467.37 580.42 467.9 581.44C468.68 582.95 469.88 583.29 471.48 582.45C473.08 581.63 473.5 580.45 472.71 578.95C472.18 577.92 469.5 572.74 464.66 563.44C465 563.27 467.7 561.86 468.04 561.68C472.86 570.97 475.54 576.13 476.07 577.16C476.87 578.69 477.91 579.12 479.18 578.46C479.65 578.22 479.97 577.88 480.15 577.44C480.17 578.83 479.39 579.96 477.78 580.78C475.85 581.78 474.4 581.63 473.42 580.31C473.38 580.33 473.1 580.47 473.07 580.49C473.45 582.13 472.5 583.53 470.22 584.71C467.89 585.92 466.24 585.86 465.26 584.54C465.23 584.56 464.95 584.71 464.91 584.72C465.34 586.33 464.4 587.72 462.14 588.91C459.41 590.32 457.45 589.85 456.22 587.51C455.46 586.01 449.29 574.15 448.52 572.66C447.66 571 446.6 569.88 445.3 569.27C444.01 568.65 442.78 568.65 441.62 569.24C439.16 570.52 438.34 571.95 439.16 573.54C439.39 573.98 439.77 574.39 440.31 574.75C440.39 574.65 440.78 574.13 441.47 573.22C441.65 573.56 442.54 575.28 444.15 578.38C440.92 577.43 439.13 576.9 438.77 576.79C439.43 575.92 439.79 575.44 439.87 575.34C439.21 574.7 438.79 574.2 438.6 573.83Z" id="c11h9izsBG"></path><path d="M438.6 573.83C438.11 572.89 438.02 571.97 438.31 571.06C438.73 569.86 439.77 568.84 441.44 567.97C446.17 565.52 449.66 566.5 451.94 570.88C452.71 572.37 458.87 584.24 459.64 585.73C460.43 587.24 461.64 587.57 463.29 586.71C464.92 585.86 465.34 584.7 464.56 583.18C464.02 582.15 461.33 576.98 456.48 567.69C456.81 567.51 459.52 566.11 459.86 565.94C464.68 575.24 467.37 580.42 467.9 581.44C468.68 582.95 469.88 583.29 471.48 582.45C473.08 581.63 473.5 580.45 472.71 578.95C472.18 577.92 469.5 572.74 464.66 563.44C465 563.27 467.7 561.86 468.04 561.68C472.86 570.97 475.54 576.13 476.07 577.16C476.87 578.69 477.91 579.12 479.18 578.46C479.65 578.22 479.97 577.88 480.15 577.44C480.17 578.83 479.39 579.96 477.78 580.78C475.85 581.78 474.4 581.63 473.42 580.31C473.38 580.33 473.1 580.47 473.07 580.49C473.45 582.13 472.5 583.53 470.22 584.71C467.89 585.92 466.24 585.86 465.26 584.54C465.23 584.56 464.95 584.71 464.91 584.72C465.34 586.33 464.4 587.72 462.14 588.91C459.41 590.32 457.45 589.85 456.22 587.51C455.46 586.01 449.29 574.15 448.52 572.66C447.66 571 446.6 569.88 445.3 569.27C444.01 568.65 442.78 568.65 441.62 569.24C439.16 570.52 438.34 571.95 439.16 573.54C439.39 573.98 439.77 574.39 440.31 574.75C440.39 574.65 440.78 574.13 441.47 573.22C441.65 573.56 442.54 575.28 444.15 578.38C440.92 577.43 439.13 576.9 438.77 576.79C439.43 575.92 439.79 575.44 439.87 575.34C439.21 574.7 438.79 574.2 438.6 573.83Z" id="g2fyplO3qn"></path><path d="M576.31 480.81C572.71 470.34 570.69 464.53 570.3 463.36C568.34 463.56 566.8 463.51 565.69 463.18C565.71 463.02 565.84 461.75 565.87 461.59C566.99 461.89 568.27 461.89 569.7 461.59C569.46 460.9 568.26 457.45 566.12 451.24C566.48 451.17 569.33 450.6 569.69 450.53C571.3 456.81 572.2 460.3 572.38 460.99C573.67 460.73 574.87 460.16 575.99 459.3C576.09 459.44 576.87 460.52 576.96 460.65C575.86 461.55 574.5 462.18 572.9 462.58C573.2 463.78 574.69 469.77 577.39 480.55C577.5 480.37 578.02 479.48 578.97 477.88L578.18 485.07L573.68 479.26C575.26 480.19 576.14 480.71 576.31 480.81Z" id="aZaOxiD1l"></path><path d="M576.31 480.81C572.71 470.34 570.69 464.53 570.3 463.36C568.34 463.56 566.8 463.51 565.69 463.18C565.71 463.02 565.84 461.75 565.87 461.59C566.99 461.89 568.27 461.89 569.7 461.59C569.46 460.9 568.26 457.45 566.12 451.24C566.48 451.17 569.33 450.6 569.69 450.53C571.3 456.81 572.2 460.3 572.38 460.99C573.67 460.73 574.87 460.16 575.99 459.3C576.09 459.44 576.87 460.52 576.96 460.65C575.86 461.55 574.5 462.18 572.9 462.58C573.2 463.78 574.69 469.77 577.39 480.55C577.5 480.37 578.02 479.48 578.97 477.88L578.18 485.07L573.68 479.26C575.26 480.19 576.14 480.71 576.31 480.81Z" id="a133cOQOz"></path><path d="M621.21 308.2L621.34 308.5L621.48 308.81L621.81 309.39L621.99 309.67L622.18 309.95L622.37 310.21L622.58 310.48L622.8 310.73L623.04 310.98L623.28 311.23L623.53 311.45L623.8 311.68L624.08 311.9L624.37 312.11L624.98 312.52L625.63 312.9L625.98 313.07L626.33 313.25L626.7 313.42L626.41 313.75L625.85 314.43L625.6 314.78L625.11 315.47L624.9 315.81L624.49 316.52L624.32 316.86L624.14 317.22L623.99 317.57L623.71 318.28L623.48 318.99L623.39 319.34L623.3 319.71L623.24 320.07L623.18 320.43L623.14 320.79L623.1 321.16L623.08 321.89L623.08 322.11L623.11 322.83L623.13 323.08L623.15 323.33L623.18 323.6L623.21 323.87L623.29 324.42L623.33 324.71L623.38 325.01L623.43 325.31L623.49 325.61L623.54 325.93L623.61 326.25L623.76 326.91L623.91 327.59L624.09 328.3L624.29 329.03L624.47 329.67L624.56 329.97L624.65 330.29L624.73 330.59L624.84 330.89L624.92 331.2L625.03 331.5L625.11 331.79L625.22 332.1L625.3 332.39L625.51 332.97L625.61 333.25L625.71 333.54L625.91 334.1L626.03 334.38L626.13 334.64L626.23 334.92L626.46 335.45L626.56 335.72L626.67 335.99L626.05 335.02L625.43 334.07L624.82 333.16L624.23 332.26L623.62 331.39L623.04 330.55L622.45 329.73L621.87 328.93L621.29 328.16L620.73 327.41L620.16 326.69L619.61 325.98L619.06 325.31L618.52 324.66L617.97 324.03L617.44 323.42L616.91 322.85L616.39 322.3L615.88 321.76L615.36 321.26L614.86 320.78L614.36 320.32L613.87 319.89L613.39 319.48L613.46 319.67L613.59 320.08L613.65 320.27L613.72 320.47L613.78 320.66L613.93 321.23L613.98 321.43L614.02 321.61L614.1 321.99L614.12 322.18L614.16 322.37L614.18 322.55L614.21 322.74L614.22 322.92L614.25 323.11L614.27 323.46L614.27 323.81L614.29 323.99L614.25 324.94L614.22 325.25L614.15 325.83L614.05 326.41L613.98 326.69L613.91 326.97L613.83 327.23L613.74 327.5L613.65 327.75L613.55 328.02L613.45 328.27L613.34 328.51L613.08 329L612.8 329.45L612.65 329.68L612.32 330.11L612.15 330.31L611.96 330.53L611.77 330.72L611.36 331.1L611.16 331.26L610.94 331.43L610.71 331.58L610.5 331.73L610.27 331.87L610.03 332L609.55 332.22L609.3 332.33L608.79 332.5L608.52 332.58L608.24 332.64L607.98 332.71L607.69 332.74L607.41 332.79L606.83 332.85L606.52 332.86L605.94 332.86L605.65 332.83L605.37 332.81L604.84 332.73L604.31 332.6L604.05 332.53L603.8 332.44L603.56 332.34L603.08 332.11L602.39 331.69L602.18 331.53L601.75 331.17L601.54 330.98L601.34 330.78L601.14 330.57L600.76 330.11L600.57 329.87L600.39 329.63L600.23 329.39L600.08 329.13L599.92 328.89L599.78 328.64L599.64 328.37L599.39 327.84L599.28 327.58L599.07 327.02L598.99 326.73L598.9 326.45L598.82 326.15L598.76 325.85L598.63 325.25L598.59 324.94L598.54 324.63L598.52 324.31L598.49 323.98L598.47 323.66L598.47 323.32L598.45 322.99L598.48 322.17L598.52 321.4L598.59 320.65L598.69 319.93L598.83 319.26L599 318.61L599.19 318L599.42 317.43L599.67 316.89L599.95 316.38L600.27 315.91L600.61 315.48L600.99 315.08L601.38 314.71L601.81 314.38L602.28 314.08L602.77 313.82L603.29 313.59L603.84 313.39L604.42 313.24L605.03 313.11L605.66 313.02L606.33 312.97L607.03 312.95L607.16 312.95L607.27 312.96L607.51 312.96L607.64 312.97L607.75 312.99L607.86 312.99L608.21 313.02L608.32 313.05L608.43 313.06L608.55 313.09L608.66 313.1L608.78 313.13L608.88 313.15L609.11 313.2L609.21 313.23L609.32 313.25L609.42 313.29L609.54 313.32L609.74 313.39L609.68 313.26L609.6 313.15L609.52 313.02L609.45 312.91L609.37 312.78L609.3 312.67L609.21 312.54L609.13 312.43L609.04 312.31L608.95 312.19L608.78 311.96L608.67 311.83L608.59 311.72L608.48 311.61L608.38 311.48L608.18 311.25L608.07 311.14L607.97 311.02L607.74 310.79L607.62 310.67L607.51 310.55L607.36 310.41L607.22 310.29L607.07 310.15L606.91 310.02L606.78 309.91L606.62 309.78L606.47 309.67L606.33 309.55L605.88 309.25L605.74 309.15L605.43 308.97L605.28 308.9L605.14 308.81L604.99 308.73L604.84 308.67L604.69 308.59L604.53 308.53L604.39 308.48L604.24 308.41L603.94 308.31L604.15 308.34L604.36 308.36L604.57 308.39L604.79 308.43L604.99 308.46L605.2 308.52L605.41 308.57L605.62 308.63L605.83 308.69L606.04 308.77L606.24 308.84L606.45 308.93L606.66 309.01L607.27 309.31L607.67 309.54L608.28 309.92L608.48 310.07L608.69 310.21L608.88 310.36L609.05 310.5L609.22 310.63L609.37 310.77L609.54 310.91L609.69 311.05L610.12 311.48L610.25 311.62L610.38 311.77L610.51 311.91L610.64 312.06L610.75 312.21L610.88 312.37L610.99 312.52L611.2 312.82L611.3 312.99L611.4 313.14L611.49 313.29L611.66 313.62L611.74 313.77L611.83 313.94L612.21 314.11L612.41 314.2L612.61 314.32L612.8 314.43L613.01 314.54L613.22 314.68L613.63 314.96L613.84 315.13L614.05 315.29L614.48 315.65L614.69 315.84L614.92 316.04L615.13 316.25L615.36 316.47L615.58 316.7L615.81 316.92L616.03 317.17L616.26 317.42L616.49 317.68L616.73 317.95L616.96 318.23L617.15 318.46L617.91 319.42L618.09 319.67L618.28 319.91L618.45 320.17L618.64 320.42L618.82 320.69L619 320.94L619.53 321.74L619.69 322L619.87 322.28L620.04 322.56L620.2 322.83L620.38 323.12L620.71 323.68L621.04 324.26L621.19 324.55L621.09 324.3L621.04 324.16L620.99 324.03L620.95 323.89L620.9 323.76L620.86 323.62L620.82 323.5L620.78 323.36L620.76 323.22L620.72 323.09L620.64 322.68L620.62 322.55L620.61 322.41L620.58 322.27L620.54 321.85L620.54 321.71L620.53 321.57L620.53 320.91L620.55 320.53L620.57 320.17L620.61 319.81L620.71 319.1L620.77 318.76L620.85 318.42L621.02 317.76L621.12 317.44L621.24 317.13L621.37 316.81L621.49 316.51L621.8 315.92L621.96 315.63L622.13 315.35L622.3 315.08L622.51 314.81L622.71 314.56L622.91 314.29L623.14 314.05L623.37 313.8L623.18 313.64L622.99 313.48L622.63 313.13L622.47 312.94L622.32 312.73L622.04 312.3L621.91 312.07L621.78 311.83L621.68 311.59L621.57 311.33L621.48 311.07L621.39 310.79L621.31 310.52L621.24 310.21L621.18 309.92L621.07 309.29L621.05 308.96L621.01 308.62L621 308.27L620.99 307.92L620.97 307.55L621.09 307.88L621.21 308.2ZM605.23 317.18L604.39 317.37L603.6 317.63L602.84 317.98L602.13 318.39L601.34 318.99L600.7 319.65L600.2 320.37L599.85 321.17L599.63 322.04L599.56 322.99L599.61 323.85L599.76 324.66L600 325.42L600.35 326.12L600.8 326.78L601.34 327.37L601.97 327.89L602.68 328.32L603.48 328.65L604.36 328.89L605.31 329.03L606.34 329.08L607.16 329.05L607.94 328.91L608.69 328.68L609.41 328.35L610.11 327.93L610.76 327.42L611.36 326.85L611.84 326.23L612.22 325.58L612.5 324.88L612.66 324.14L612.72 323.36L612.68 322.79L612.59 322.12L612.44 321.33L612.23 320.45L611.96 319.46L611.63 318.38L610.7 317.96L609.84 317.63L609.04 317.37L608.31 317.18L607.64 317.08L607.03 317.04L606.1 317.06L605.23 317.18Z" id="a1BFNO5l7h"></path><path d="M621.21 308.2L621.34 308.5L621.48 308.81L621.81 309.39L621.99 309.67L622.18 309.95L622.37 310.21L622.58 310.48L622.8 310.73L623.04 310.98L623.28 311.23L623.53 311.45L623.8 311.68L624.08 311.9L624.37 312.11L624.98 312.52L625.63 312.9L625.98 313.07L626.33 313.25L626.7 313.42L626.41 313.75L625.85 314.43L625.6 314.78L625.11 315.47L624.9 315.81L624.49 316.52L624.32 316.86L624.14 317.22L623.99 317.57L623.71 318.28L623.48 318.99L623.39 319.34L623.3 319.71L623.24 320.07L623.18 320.43L623.14 320.79L623.1 321.16L623.08 321.89L623.08 322.11L623.11 322.83L623.13 323.08L623.15 323.33L623.18 323.6L623.21 323.87L623.29 324.42L623.33 324.71L623.38 325.01L623.43 325.31L623.49 325.61L623.54 325.93L623.61 326.25L623.76 326.91L623.91 327.59L624.09 328.3L624.29 329.03L624.47 329.67L624.56 329.97L624.65 330.29L624.73 330.59L624.84 330.89L624.92 331.2L625.03 331.5L625.11 331.79L625.22 332.1L625.3 332.39L625.51 332.97L625.61 333.25L625.71 333.54L625.91 334.1L626.03 334.38L626.13 334.64L626.23 334.92L626.46 335.45L626.56 335.72L626.67 335.99L626.05 335.02L625.43 334.07L624.82 333.16L624.23 332.26L623.62 331.39L623.04 330.55L622.45 329.73L621.87 328.93L621.29 328.16L620.73 327.41L620.16 326.69L619.61 325.98L619.06 325.31L618.52 324.66L617.97 324.03L617.44 323.42L616.91 322.85L616.39 322.3L615.88 321.76L615.36 321.26L614.86 320.78L614.36 320.32L613.87 319.89L613.39 319.48L613.46 319.67L613.59 320.08L613.65 320.27L613.72 320.47L613.78 320.66L613.93 321.23L613.98 321.43L614.02 321.61L614.1 321.99L614.12 322.18L614.16 322.37L614.18 322.55L614.21 322.74L614.22 322.92L614.25 323.11L614.27 323.46L614.27 323.81L614.29 323.99L614.25 324.94L614.22 325.25L614.15 325.83L614.05 326.41L613.98 326.69L613.91 326.97L613.83 327.23L613.74 327.5L613.65 327.75L613.55 328.02L613.45 328.27L613.34 328.51L613.08 329L612.8 329.45L612.65 329.68L612.32 330.11L612.15 330.31L611.96 330.53L611.77 330.72L611.36 331.1L611.16 331.26L610.94 331.43L610.71 331.58L610.5 331.73L610.27 331.87L610.03 332L609.55 332.22L609.3 332.33L608.79 332.5L608.52 332.58L608.24 332.64L607.98 332.71L607.69 332.74L607.41 332.79L606.83 332.85L606.52 332.86L605.94 332.86L605.65 332.83L605.37 332.81L604.84 332.73L604.31 332.6L604.05 332.53L603.8 332.44L603.56 332.34L603.08 332.11L602.39 331.69L602.18 331.53L601.75 331.17L601.54 330.98L601.34 330.78L601.14 330.57L600.76 330.11L600.57 329.87L600.39 329.63L600.23 329.39L600.08 329.13L599.92 328.89L599.78 328.64L599.64 328.37L599.39 327.84L599.28 327.58L599.07 327.02L598.99 326.73L598.9 326.45L598.82 326.15L598.76 325.85L598.63 325.25L598.59 324.94L598.54 324.63L598.52 324.31L598.49 323.98L598.47 323.66L598.47 323.32L598.45 322.99L598.48 322.17L598.52 321.4L598.59 320.65L598.69 319.93L598.83 319.26L599 318.61L599.19 318L599.42 317.43L599.67 316.89L599.95 316.38L600.27 315.91L600.61 315.48L600.99 315.08L601.38 314.71L601.81 314.38L602.28 314.08L602.77 313.82L603.29 313.59L603.84 313.39L604.42 313.24L605.03 313.11L605.66 313.02L606.33 312.97L607.03 312.95L607.16 312.95L607.27 312.96L607.51 312.96L607.64 312.97L607.75 312.99L607.86 312.99L608.21 313.02L608.32 313.05L608.43 313.06L608.55 313.09L608.66 313.1L608.78 313.13L608.88 313.15L609.11 313.2L609.21 313.23L609.32 313.25L609.42 313.29L609.54 313.32L609.74 313.39L609.68 313.26L609.6 313.15L609.52 313.02L609.45 312.91L609.37 312.78L609.3 312.67L609.21 312.54L609.13 312.43L609.04 312.31L608.95 312.19L608.78 311.96L608.67 311.83L608.59 311.72L608.48 311.61L608.38 311.48L608.18 311.25L608.07 311.14L607.97 311.02L607.74 310.79L607.62 310.67L607.51 310.55L607.36 310.41L607.22 310.29L607.07 310.15L606.91 310.02L606.78 309.91L606.62 309.78L606.47 309.67L606.33 309.55L605.88 309.25L605.74 309.15L605.43 308.97L605.28 308.9L605.14 308.81L604.99 308.73L604.84 308.67L604.69 308.59L604.53 308.53L604.39 308.48L604.24 308.41L603.94 308.31L604.15 308.34L604.36 308.36L604.57 308.39L604.79 308.43L604.99 308.46L605.2 308.52L605.41 308.57L605.62 308.63L605.83 308.69L606.04 308.77L606.24 308.84L606.45 308.93L606.66 309.01L607.27 309.31L607.67 309.54L608.28 309.92L608.48 310.07L608.69 310.21L608.88 310.36L609.05 310.5L609.22 310.63L609.37 310.77L609.54 310.91L609.69 311.05L610.12 311.48L610.25 311.62L610.38 311.77L610.51 311.91L610.64 312.06L610.75 312.21L610.88 312.37L610.99 312.52L611.2 312.82L611.3 312.99L611.4 313.14L611.49 313.29L611.66 313.62L611.74 313.77L611.83 313.94L612.21 314.11L612.41 314.2L612.61 314.32L612.8 314.43L613.01 314.54L613.22 314.68L613.63 314.96L613.84 315.13L614.05 315.29L614.48 315.65L614.69 315.84L614.92 316.04L615.13 316.25L615.36 316.47L615.58 316.7L615.81 316.92L616.03 317.17L616.26 317.42L616.49 317.68L616.73 317.95L616.96 318.23L617.15 318.46L617.91 319.42L618.09 319.67L618.28 319.91L618.45 320.17L618.64 320.42L618.82 320.69L619 320.94L619.53 321.74L619.69 322L619.87 322.28L620.04 322.56L620.2 322.83L620.38 323.12L620.71 323.68L621.04 324.26L621.19 324.55L621.09 324.3L621.04 324.16L620.99 324.03L620.95 323.89L620.9 323.76L620.86 323.62L620.82 323.5L620.78 323.36L620.76 323.22L620.72 323.09L620.64 322.68L620.62 322.55L620.61 322.41L620.58 322.27L620.54 321.85L620.54 321.71L620.53 321.57L620.53 320.91L620.55 320.53L620.57 320.17L620.61 319.81L620.71 319.1L620.77 318.76L620.85 318.42L621.02 317.76L621.12 317.44L621.24 317.13L621.37 316.81L621.49 316.51L621.8 315.92L621.96 315.63L622.13 315.35L622.3 315.08L622.51 314.81L622.71 314.56L622.91 314.29L623.14 314.05L623.37 313.8L623.18 313.64L622.99 313.48L622.63 313.13L622.47 312.94L622.32 312.73L622.04 312.3L621.91 312.07L621.78 311.83L621.68 311.59L621.57 311.33L621.48 311.07L621.39 310.79L621.31 310.52L621.24 310.21L621.18 309.92L621.07 309.29L621.05 308.96L621.01 308.62L621 308.27L620.99 307.92L620.97 307.55L621.09 307.88L621.21 308.2ZM605.23 317.18L604.39 317.37L603.6 317.63L602.84 317.98L602.13 318.39L601.34 318.99L600.7 319.65L600.2 320.37L599.85 321.17L599.63 322.04L599.56 322.99L599.61 323.85L599.76 324.66L600 325.42L600.35 326.12L600.8 326.78L601.34 327.37L601.97 327.89L602.68 328.32L603.48 328.65L604.36 328.89L605.31 329.03L606.34 329.08L607.16 329.05L607.94 328.91L608.69 328.68L609.41 328.35L610.11 327.93L610.76 327.42L611.36 326.85L611.84 326.23L612.22 325.58L612.5 324.88L612.66 324.14L612.72 323.36L612.68 322.79L612.59 322.12L612.44 321.33L612.23 320.45L611.96 319.46L611.63 318.38L610.7 317.96L609.84 317.63L609.04 317.37L608.31 317.18L607.64 317.08L607.03 317.04L606.1 317.06L605.23 317.18Z" id="aFupZi4JL"></path><path d="M565.37 163.64L565.55 163.66L565.71 163.7L565.88 163.74L566.03 163.78L566.17 163.84L566.31 163.9L566.44 163.97L566.56 164.04L566.68 164.12L566.78 164.21L566.88 164.31L566.97 164.41L567.06 164.52L567.12 164.64L567.21 164.8L567.28 164.98L567.34 165.16L567.36 165.36L567.37 165.56L567.37 165.78L567.35 166L567.31 166.25L567.25 166.49L567.17 166.75L567.07 167.02L566.96 167.3L566.83 167.58L566.68 167.88L566.51 168.18L566.32 168.5L566.12 168.83L565.89 169.16L565.59 169.61L565.28 170.04L564.99 170.48L564.71 170.91L564.45 171.31L564.18 171.72L563.92 172.11L563.66 172.5L563.42 172.87L563.19 173.24L562.97 173.6L562.75 173.95L562.53 174.29L562.33 174.63L562.14 174.95L561.95 175.26L561.78 175.57L561.61 175.86L561.52 176.01L561.45 176.15L561.37 176.28L561.31 176.42L561.24 176.53L561.18 176.64L561.14 176.76L561.09 176.86L561.05 176.96L561.03 177.05L561 177.12L560.99 177.2L560.98 177.28L560.96 177.34L560.96 177.4L560.98 177.45L560.99 177.5L561 177.54L561.04 177.58L561.07 177.62L561.12 177.66L561.17 177.68L561.23 177.71L561.29 177.73L561.37 177.75L561.46 177.76L561.55 177.77L561.64 177.78L561.75 177.78L561.86 177.78L561.98 177.78L562.12 177.78L562.26 177.77L562.4 177.76L562.55 177.73L562.71 177.72L563.07 177.68L563.43 177.63L563.81 177.58L564.23 177.53L564.65 177.48L565.09 177.43L565.56 177.38L566.04 177.31L566.55 177.25L567.07 177.19L567.6 177.12L568.16 177.05L568.74 176.99L569.34 176.91L569.94 176.83L570.58 176.76L571.24 176.67L571.91 176.59L572.16 176.55L572.41 176.54L572.65 176.54L572.88 176.54L573.11 176.55L573.33 176.58L573.53 176.62L573.72 176.67L573.91 176.73L574.09 176.81L574.25 176.9L574.42 176.99L574.57 177.09L574.71 177.21L574.83 177.34L574.96 177.48L575.07 177.63L575.18 177.8L575.29 177.99L575.38 178.18L575.45 178.37L575.52 178.57L575.55 178.77L575.59 178.97L575.61 179.18L575.62 179.39L575.61 179.59L575.58 179.81L575.54 180.03L575.49 180.25L575.43 180.47L575.34 180.7L575.25 180.92L575.14 181.15L575.01 181.39L574.88 181.63L574.73 181.87L574.57 182.15L574.38 182.46L574.19 182.79L573.98 183.15L573.77 183.53L573.53 183.94L573.29 184.37L573.02 184.84L572.74 185.32L572.46 185.84L572.16 186.37L571.84 186.94L571.51 187.54L571.17 188.14L570.82 188.79L570.44 189.46L570.06 190.16L569.98 190.3L569.92 190.44L569.86 190.56L569.8 190.69L569.75 190.82L569.72 190.93L569.68 191.04L569.64 191.16L569.63 191.26L569.6 191.36L569.59 191.46L569.59 191.55L569.59 191.64L569.6 191.73L569.61 191.8L569.64 191.88L569.67 191.94L569.7 192.02L569.77 192.11L569.86 192.18L569.98 192.25L570.11 192.3L570.27 192.34L570.46 192.36L570.68 192.37L570.91 192.37L571.16 192.36L571.45 192.35L571.76 192.31L572.08 192.26L572.44 192.21L572.81 192.13L573.21 192.06L573.64 191.96L574.09 191.85L574.55 191.73L573.85 192.11L573.17 192.45L572.53 192.75L571.91 193.01L571.32 193.24L570.77 193.43L570.25 193.58L569.75 193.68L569.29 193.75L568.85 193.79L568.45 193.79L568.08 193.75L567.74 193.68L567.44 193.56L567.16 193.41L566.92 193.22L566.7 192.99L566.51 192.73L566.42 192.55L566.33 192.37L566.27 192.18L566.22 191.99L566.17 191.8L566.14 191.6L566.14 191.4L566.14 191.18L566.16 190.97L566.18 190.75L566.23 190.52L566.28 190.3L566.36 190.07L566.45 189.83L566.55 189.59L566.66 189.33L566.79 189.08L566.93 188.81L567.13 188.46L567.34 188.08L567.55 187.7L567.78 187.31L568.01 186.89L568.23 186.47L568.48 186.04L568.73 185.59L568.99 185.13L569.26 184.66L569.53 184.18L569.8 183.69L570.1 183.18L570.39 182.65L570.69 182.11L571 181.57L571.31 181.01L571.64 180.44L571.72 180.32L571.79 180.19L571.86 180.08L571.91 179.96L571.96 179.84L572 179.72L572.03 179.62L572.06 179.51L572.08 179.4L572.1 179.3L572.11 179.21L572.11 179.11L572.1 179.02L572.08 178.94L572.07 178.85L572.03 178.77L572.01 178.68L571.97 178.61L571.92 178.54L571.87 178.48L571.81 178.42L571.74 178.37L571.68 178.32L571.6 178.28L571.53 178.23L571.44 178.2L571.35 178.16L571.25 178.14L571.15 178.13L571.03 178.11L570.92 178.1L570.81 178.09L570.67 178.09L570.54 178.1L570.4 178.1L570.26 178.13L569.87 178.16L569.46 178.21L569.04 178.26L568.61 178.33L568.16 178.38L567.69 178.43L567.21 178.49L566.7 178.56L566.2 178.62L565.65 178.68L565.11 178.75L564.54 178.82L563.95 178.89L563.36 178.96L562.74 179.04L562.1 179.11L561.46 179.19L560.8 179.27L560.56 179.29L560.33 179.3L560.12 179.3L559.91 179.29L559.71 179.27L559.51 179.24L559.33 179.2L559.15 179.15L558.99 179.1L558.82 179.04L558.67 178.95L558.53 178.87L558.39 178.77L558.27 178.67L558.15 178.54L558.04 178.43L557.94 178.29L557.85 178.14L557.76 178L557.7 177.85L557.63 177.69L557.58 177.54L557.54 177.39L557.52 177.24L557.51 177.07L557.51 176.92L557.51 176.76L557.53 176.59L557.56 176.43L557.6 176.26L557.65 176.09L557.71 175.92L557.79 175.74L557.87 175.58L557.96 175.4L558.08 175.22L558.1 175.17L558.17 175.09L558.25 174.95L558.38 174.76L558.53 174.52L558.72 174.22L558.94 173.88L559.2 173.49L559.48 173.05L559.81 172.55L560.15 172.01L560.55 171.43L560.96 170.78L561.41 170.08L561.89 169.34L562.41 168.55L562.95 167.7L563.54 166.82L563.61 166.7L563.67 166.59L563.74 166.47L563.79 166.37L563.84 166.27L563.89 166.17L563.92 166.07L563.95 165.97L563.97 165.88L563.99 165.79L564 165.7L564 165.62L564 165.54L563.99 165.46L563.98 165.38L563.95 165.32L563.93 165.24L563.89 165.18L563.83 165.09L563.75 165.02L563.65 164.94L563.55 164.86L563.42 164.81L563.27 164.75L563.12 164.71L562.94 164.67L562.75 164.64L562.55 164.61L562.33 164.6L562.09 164.59L561.84 164.59L561.57 164.59L561.29 164.6L560.99 164.62L560.69 164.65L560.36 164.69L560.61 164.57L560.86 164.47L561.13 164.37L561.37 164.27L561.62 164.19L561.86 164.1L562.12 164.03L562.36 163.97L562.59 163.9L562.83 163.84L563.05 163.79L563.28 163.75L563.51 163.71L563.74 163.67L563.95 163.65L564.17 163.62L564.38 163.61L564.6 163.6L564.8 163.6L565 163.61L565.19 163.62L565.37 163.64Z" id="g4YXQWbJh8"></path><path d="M565.37 163.64L565.55 163.66L565.71 163.7L565.88 163.74L566.03 163.78L566.17 163.84L566.31 163.9L566.44 163.97L566.56 164.04L566.68 164.12L566.78 164.21L566.88 164.31L566.97 164.41L567.06 164.52L567.12 164.64L567.21 164.8L567.28 164.98L567.34 165.16L567.36 165.36L567.37 165.56L567.37 165.78L567.35 166L567.31 166.25L567.25 166.49L567.17 166.75L567.07 167.02L566.96 167.3L566.83 167.58L566.68 167.88L566.51 168.18L566.32 168.5L566.12 168.83L565.89 169.16L565.59 169.61L565.28 170.04L564.99 170.48L564.71 170.91L564.45 171.31L564.18 171.72L563.92 172.11L563.66 172.5L563.42 172.87L563.19 173.24L562.97 173.6L562.75 173.95L562.53 174.29L562.33 174.63L562.14 174.95L561.95 175.26L561.78 175.57L561.61 175.86L561.52 176.01L561.45 176.15L561.37 176.28L561.31 176.42L561.24 176.53L561.18 176.64L561.14 176.76L561.09 176.86L561.05 176.96L561.03 177.05L561 177.12L560.99 177.2L560.98 177.28L560.96 177.34L560.96 177.4L560.98 177.45L560.99 177.5L561 177.54L561.04 177.58L561.07 177.62L561.12 177.66L561.17 177.68L561.23 177.71L561.29 177.73L561.37 177.75L561.46 177.76L561.55 177.77L561.64 177.78L561.75 177.78L561.86 177.78L561.98 177.78L562.12 177.78L562.26 177.77L562.4 177.76L562.55 177.73L562.71 177.72L563.07 177.68L563.43 177.63L563.81 177.58L564.23 177.53L564.65 177.48L565.09 177.43L565.56 177.38L566.04 177.31L566.55 177.25L567.07 177.19L567.6 177.12L568.16 177.05L568.74 176.99L569.34 176.91L569.94 176.83L570.58 176.76L571.24 176.67L571.91 176.59L572.16 176.55L572.41 176.54L572.65 176.54L572.88 176.54L573.11 176.55L573.33 176.58L573.53 176.62L573.72 176.67L573.91 176.73L574.09 176.81L574.25 176.9L574.42 176.99L574.57 177.09L574.71 177.21L574.83 177.34L574.96 177.48L575.07 177.63L575.18 177.8L575.29 177.99L575.38 178.18L575.45 178.37L575.52 178.57L575.55 178.77L575.59 178.97L575.61 179.18L575.62 179.39L575.61 179.59L575.58 179.81L575.54 180.03L575.49 180.25L575.43 180.47L575.34 180.7L575.25 180.92L575.14 181.15L575.01 181.39L574.88 181.63L574.73 181.87L574.57 182.15L574.38 182.46L574.19 182.79L573.98 183.15L573.77 183.53L573.53 183.94L573.29 184.37L573.02 184.84L572.74 185.32L572.46 185.84L572.16 186.37L571.84 186.94L571.51 187.54L571.17 188.14L570.82 188.79L570.44 189.46L570.06 190.16L569.98 190.3L569.92 190.44L569.86 190.56L569.8 190.69L569.75 190.82L569.72 190.93L569.68 191.04L569.64 191.16L569.63 191.26L569.6 191.36L569.59 191.46L569.59 191.55L569.59 191.64L569.6 191.73L569.61 191.8L569.64 191.88L569.67 191.94L569.7 192.02L569.77 192.11L569.86 192.18L569.98 192.25L570.11 192.3L570.27 192.34L570.46 192.36L570.68 192.37L570.91 192.37L571.16 192.36L571.45 192.35L571.76 192.31L572.08 192.26L572.44 192.21L572.81 192.13L573.21 192.06L573.64 191.96L574.09 191.85L574.55 191.73L573.85 192.11L573.17 192.45L572.53 192.75L571.91 193.01L571.32 193.24L570.77 193.43L570.25 193.58L569.75 193.68L569.29 193.75L568.85 193.79L568.45 193.79L568.08 193.75L567.74 193.68L567.44 193.56L567.16 193.41L566.92 193.22L566.7 192.99L566.51 192.73L566.42 192.55L566.33 192.37L566.27 192.18L566.22 191.99L566.17 191.8L566.14 191.6L566.14 191.4L566.14 191.18L566.16 190.97L566.18 190.75L566.23 190.52L566.28 190.3L566.36 190.07L566.45 189.83L566.55 189.59L566.66 189.33L566.79 189.08L566.93 188.81L567.13 188.46L567.34 188.08L567.55 187.7L567.78 187.31L568.01 186.89L568.23 186.47L568.48 186.04L568.73 185.59L568.99 185.13L569.26 184.66L569.53 184.18L569.8 183.69L570.1 183.18L570.39 182.65L570.69 182.11L571 181.57L571.31 181.01L571.64 180.44L571.72 180.32L571.79 180.19L571.86 180.08L571.91 179.96L571.96 179.84L572 179.72L572.03 179.62L572.06 179.51L572.08 179.4L572.1 179.3L572.11 179.21L572.11 179.11L572.1 179.02L572.08 178.94L572.07 178.85L572.03 178.77L572.01 178.68L571.97 178.61L571.92 178.54L571.87 178.48L571.81 178.42L571.74 178.37L571.68 178.32L571.6 178.28L571.53 178.23L571.44 178.2L571.35 178.16L571.25 178.14L571.15 178.13L571.03 178.11L570.92 178.1L570.81 178.09L570.67 178.09L570.54 178.1L570.4 178.1L570.26 178.13L569.87 178.16L569.46 178.21L569.04 178.26L568.61 178.33L568.16 178.38L567.69 178.43L567.21 178.49L566.7 178.56L566.2 178.62L565.65 178.68L565.11 178.75L564.54 178.82L563.95 178.89L563.36 178.96L562.74 179.04L562.1 179.11L561.46 179.19L560.8 179.27L560.56 179.29L560.33 179.3L560.12 179.3L559.91 179.29L559.71 179.27L559.51 179.24L559.33 179.2L559.15 179.15L558.99 179.1L558.82 179.04L558.67 178.95L558.53 178.87L558.39 178.77L558.27 178.67L558.15 178.54L558.04 178.43L557.94 178.29L557.85 178.14L557.76 178L557.7 177.85L557.63 177.69L557.58 177.54L557.54 177.39L557.52 177.24L557.51 177.07L557.51 176.92L557.51 176.76L557.53 176.59L557.56 176.43L557.6 176.26L557.65 176.09L557.71 175.92L557.79 175.74L557.87 175.58L557.96 175.4L558.08 175.22L558.1 175.17L558.17 175.09L558.25 174.95L558.38 174.76L558.53 174.52L558.72 174.22L558.94 173.88L559.2 173.49L559.48 173.05L559.81 172.55L560.15 172.01L560.55 171.43L560.96 170.78L561.41 170.08L561.89 169.34L562.41 168.55L562.95 167.7L563.54 166.82L563.61 166.7L563.67 166.59L563.74 166.47L563.79 166.37L563.84 166.27L563.89 166.17L563.92 166.07L563.95 165.97L563.97 165.88L563.99 165.79L564 165.7L564 165.62L564 165.54L563.99 165.46L563.98 165.38L563.95 165.32L563.93 165.24L563.89 165.18L563.83 165.09L563.75 165.02L563.65 164.94L563.55 164.86L563.42 164.81L563.27 164.75L563.12 164.71L562.94 164.67L562.75 164.64L562.55 164.61L562.33 164.6L562.09 164.59L561.84 164.59L561.57 164.59L561.29 164.6L560.99 164.62L560.69 164.65L560.36 164.69L560.61 164.57L560.86 164.47L561.13 164.37L561.37 164.27L561.62 164.19L561.86 164.1L562.12 164.03L562.36 163.97L562.59 163.9L562.83 163.84L563.05 163.79L563.28 163.75L563.51 163.71L563.74 163.67L563.95 163.65L564.17 163.62L564.38 163.61L564.6 163.6L564.8 163.6L565 163.61L565.19 163.62L565.37 163.64Z" id="agNpmNksO"></path><path d="M466.7 72.69C466.23 72.33 465.59 71.94 464.8 71.5C464.37 71.25 463.75 70.96 462.96 70.61C461.33 73.28 459.21 75.33 456.59 76.76C453.97 78.21 451.47 78.68 449.08 78.2C451.28 77.65 453.23 76.55 454.9 74.86C456.16 73.59 457.55 71.61 459.08 68.92C458.19 68.61 456.93 68.32 455.31 68.05C455.41 67.92 455.75 67.49 456.35 66.73C457.88 66.83 459.07 67.06 459.92 67.42C462.52 62.39 463.37 57.89 462.48 53.93C464.18 55.68 465.14 57.97 465.35 60.82C465.58 63.66 465.06 66.42 463.81 69.06C464.63 69.41 465.25 69.68 465.67 69.91C466.4 70.32 467.04 70.72 467.56 71.14C469.14 68.63 471.18 66.73 473.66 65.44C476.21 64.07 478.68 63.66 481.07 64.2C477.25 65.56 473.9 68.68 471.05 73.56C471.86 74.16 472.7 74.99 473.57 76.07C473.37 76.83 473.16 77.47 472.95 78.02C472.19 76.88 471.29 75.9 470.22 75.08C468.81 77.68 467.9 79.83 467.46 81.54C466.85 83.95 466.91 86.26 467.67 88.47C465.99 86.69 465.05 84.34 464.89 81.37C464.71 78.41 465.32 75.51 466.7 72.69Z" id="dacEZtWXf"></path><path d="M466.7 72.69C466.23 72.33 465.59 71.94 464.8 71.5C464.37 71.25 463.75 70.96 462.96 70.61C461.33 73.28 459.21 75.33 456.59 76.76C453.97 78.21 451.47 78.68 449.08 78.2C451.28 77.65 453.23 76.55 454.9 74.86C456.16 73.59 457.55 71.61 459.08 68.92C458.19 68.61 456.93 68.32 455.31 68.05C455.41 67.92 455.75 67.49 456.35 66.73C457.88 66.83 459.07 67.06 459.92 67.42C462.52 62.39 463.37 57.89 462.48 53.93C464.18 55.68 465.14 57.97 465.35 60.82C465.58 63.66 465.06 66.42 463.81 69.06C464.63 69.41 465.25 69.68 465.67 69.91C466.4 70.32 467.04 70.72 467.56 71.14C469.14 68.63 471.18 66.73 473.66 65.44C476.21 64.07 478.68 63.66 481.07 64.2C477.25 65.56 473.9 68.68 471.05 73.56C471.86 74.16 472.7 74.99 473.57 76.07C473.37 76.83 473.16 77.47 472.95 78.02C472.19 76.88 471.29 75.9 470.22 75.08C468.81 77.68 467.9 79.83 467.46 81.54C466.85 83.95 466.91 86.26 467.67 88.47C465.99 86.69 465.05 84.34 464.89 81.37C464.71 78.41 465.32 75.51 466.7 72.69Z" id="c3SAvxVq3o"></path><path d="M472.59 171.97L542.47 103.3" id="aizqhTyNL"></path><path d="M472.59 171.97L542.47 103.3" id="f12yVC8Ta6"></path><path d="M527.93 269.58L621.78 243.38" id="c7ldGIxpuk"></path><path d="M527.93 269.58L621.78 243.38" id="a1TG4ChW4W"></path><path d="M527 376.59L620.38 404.43" id="c13RUjalU"></path><path d="M527 376.59L620.38 404.43" id="c15vrni2ML"></path><path d="M469.96 473.23L538.64 543.12" id="a8ovR64W2d"></path><path d="M469.96 473.23L538.64 543.12" id="b2VRmCcsO"></path><path d="M373.68 526.26L398.56 622.43" id="b2oQpF3"></path><path d="M373.68 526.26L398.56 622.43" id="b84SJDYhp"></path><path d="M264.8 522.62L237.49 621.02" id="a2Fi6b4Ag"></path><path d="M264.8 522.62L237.49 621.02" id="dTVXosJCq"></path><path d="M171.35 468L98.82 539.27" id="b4DX6Fv8PW"></path><path d="M171.35 468L98.82 539.27" id="aS5O1gg"></path><path d="M118.35 376.69L19.51 399.2" id="e1o5mWNpFf"></path><path d="M118.35 376.69L19.51 399.2" id="eVbvteNkD"></path><path d="M119.41 255.41L20.91 238.13" id="hq02pXftv"></path><path d="M119.41 255.41L20.91 238.13" id="bEsLX1PkT"></path><path d="M173.94 172L102.66 99.46" id="d6RzrKT7x"></path><path d="M173.94 172L102.66 99.46" id="c8oLUMklR"></path><path d="M266.7 117.72L242.73 18.87" id="maUGAHXb"></path><path d="M266.7 117.72L242.73 18.87" id="f19PK7p95S"></path><path d="M376.51 119.95L403.8 21.54" id="aeQa2WcG3"></path><path d="M376.51 119.95L403.8 21.54" id="aryTmK3fS"></path><path d="M173.9 170.67C90.71 252.41 89.55 386.1 171.29 469.29C253.04 552.48 386.74 553.64 469.91 471.9C553.1 390.16 554.26 256.46 472.52 173.27C390.78 90.09 257.08 88.92 173.9 170.67Z" id="d6aH0oLqL"></path><path d="M173.9 170.67C90.71 252.41 89.55 386.1 171.29 469.29C253.04 552.48 386.74 553.64 469.91 471.9C553.1 390.16 554.26 256.46 472.52 173.27C390.78 90.09 257.08 88.92 173.9 170.67Z" id="c27ail58f7"></path></defs><g><g><g><use xlink:href="#a1hjBbUyJj" opacity="1" fill="#000000" fill-opacity="0"></use><g><use xlink:href="#a1hjBbUyJj" opacity="1" fill-opacity="0" stroke="#000000" stroke-width="1" stroke-opacity="0"></use></g></g><g><use xlink:href="#bhYIacWxW" opacity="1" fill="#000000" fill-opacity="0"></use><g><use xlink:href="#bhYIacWxW" opacity="1" fill-opacity="0" stroke="#cccccc" stroke-width="6" stroke-opacity="1"></use></g></g><g><use xlink:href="#a7D8GTEkkK" opacity="1" fill="#000000" fill-opacity="0"></use><g><use xlink:href="#a7D8GTEkkK" opacity="1" fill-opacity="0" stroke="#000000" stroke-width="1" stroke-opacity="0"></use></g></g><g><use xlink:href="#cjPXL0Awg" opacity="1" fill="#000000" fill-opacity="0"></use><g><use xlink:href="#cjPXL0Awg" opacity="1" fill-opacity="0" stroke="#cccccc" stroke-width="3.91" stroke-opacity="1"></use></g></g><g><use xlink:href="#e5Ukl9U4h" opacity="1" fill="#000000" fill-opacity="1"></use><g><use xlink:href="#e5Ukl9U4h" opacity="1" fill-opacity="0" stroke="#000000" stroke-width="1" stroke-opacity="0"></use></g></g><g><use xlink:href="#aQQTwZeqy" opacity="1" fill="#000000" fill-opacity="0"></use><g><use xlink:href="#aQQTwZeqy" opacity="1" fill-opacity="0" stroke="#000000" stroke-width="1" stroke-opacity="0"></use></g></g><g><use xlink:href="#gkdB8rYAO" opacity="1" fill="#000000" fill-opacity="1"></use><g><use xlink:href="#gkdB8rYAO" opacity="1" fill-opacity="0" stroke="#000000" stroke-width="1" stroke-opacity="0"></use></g></g><g><use xlink:href="#aMOnH6snf" opacity="1" fill="#000000" fill-opacity="0"></use><g><use xlink:href="#aMOnH6snf" opacity="1" fill-opacity="0" stroke="#000000" stroke-width="1" stroke-opacity="0"></use></g></g><g><use xlink:href="#bHVrIsssp" opacity="1" fill="#000000" fill-opacity="1"></use><g><use xlink:href="#bHVrIsssp" opacity="1" fill-opacity="0" stroke="#000000" stroke-width="1" stroke-opacity="0"></use></g></g><g><use xlink:href="#aL0z9k2Fc" opacity="1" fill="#000000" fill-opacity="0"></use><g><use xlink:href="#aL0z9k2Fc" opacity="1" fill-opacity="0" stroke="#000000" stroke-width="1" stroke-opacity="0"></use></g></g><g><use xlink:href="#a1qArYK8Sd" opacity="1" fill="#000000" fill-opacity="1"></use><g><use xlink:href="#a1qArYK8Sd" opacity="1" fill-opacity="0" stroke="#000000" stroke-width="1" stroke-opacity="0"></use></g></g><g><use xlink:href="#c5vhLcGVC1" opacity="1" fill="#000000" fill-opacity="0"></use><g><use xlink:href="#c5vhLcGVC1" opacity="1" fill-opacity="0" stroke="#000000" stroke-width="1" stroke-opacity="0"></use></g></g><g><use xlink:href="#b1yUA8AKZk" opacity="1" fill="#000000" fill-opacity="1"></use><g><use xlink:href="#b1yUA8AKZk" opacity="1" fill-opacity="0" stroke="#000000" stroke-width="1" stroke-opacity="0"></use></g></g><g><use xlink:href="#a4hWStCqfy" opacity="1" fill="#000000" fill-opacity="0"></use><g><use xlink:href="#a4hWStCqfy" opacity="1" fill-opacity="0" stroke="#000000" stroke-width="1" stroke-opacity="0"></use></g></g><g><use xlink:href="#h1PsKGlcoO" opacity="1" fill="#000000" fill-opacity="1"></use><g><use xlink:href="#h1PsKGlcoO" opacity="1" fill-opacity="0" stroke="#000000" stroke-width="1" stroke-opacity="0"></use></g></g><g><use xlink:href="#b2d6T2FkZG" opacity="1" fill="#000000" fill-opacity="0"></use><g><use xlink:href="#b2d6T2FkZG" opacity="1" fill-opacity="0" stroke="#000000" stroke-width="1" stroke-opacity="0"></use></g></g><g><use xlink:href="#azO9sWteP" opacity="1" fill="#000000" fill-opacity="1"></use><g><use xlink:href="#azO9sWteP" opacity="1" fill-opacity="0" stroke="#000000" stroke-width="1" stroke-opacity="0"></use></g></g><g><use xlink:href="#a7R4HKNhy" opacity="1" fill="#000000" fill-opacity="0"></use><g><use xlink:href="#a7R4HKNhy" opacity="1" fill-opacity="0" stroke="#000000" stroke-width="1" stroke-opacity="0"></use></g></g><g><use xlink:href="#c11h9izsBG" opacity="1" fill="#000000" fill-opacity="1"></use><g><use xlink:href="#c11h9izsBG" opacity="1" fill-opacity="0" stroke="#000000" stroke-width="1" stroke-opacity="0"></use></g></g><g><use xlink:href="#g2fyplO3qn" opacity="1" fill="#000000" fill-opacity="0"></use><g><use xlink:href="#g2fyplO3qn" opacity="1" fill-opacity="0" stroke="#000000" stroke-width="1" stroke-opacity="0"></use></g></g><g><use xlink:href="#aZaOxiD1l" opacity="1" fill="#000000" fill-opacity="1"></use><g><use xlink:href="#aZaOxiD1l" opacity="1" fill-opacity="0" stroke="#000000" stroke-width="1" stroke-opacity="0"></use></g></g><g><use xlink:href="#a133cOQOz" opacity="1" fill="#000000" fill-opacity="0"></use><g><use xlink:href="#a133cOQOz" opacity="1" fill-opacity="0" stroke="#000000" stroke-width="1" stroke-opacity="0"></use></g></g><g><use xlink:href="#a1BFNO5l7h" opacity="1" fill="#000000" fill-opacity="1"></use><g><use xlink:href="#a1BFNO5l7h" opacity="1" fill-opacity="0" stroke="#000000" stroke-width="1" stroke-opacity="0"></use></g></g><g><use xlink:href="#aFupZi4JL" opacity="1" fill="#000000" fill-opacity="0"></use><g><use xlink:href="#aFupZi4JL" opacity="1" fill-opacity="0" stroke="#000000" stroke-width="1" stroke-opacity="0"></use></g></g><g><use xlink:href="#g4YXQWbJh8" opacity="1" fill="#000000" fill-opacity="1"></use><g><use xlink:href="#g4YXQWbJh8" opacity="1" fill-opacity="0" stroke="#000000" stroke-width="1" stroke-opacity="0"></use></g></g><g><use xlink:href="#agNpmNksO" opacity="1" fill="#000000" fill-opacity="0"></use><g><use xlink:href="#agNpmNksO" opacity="1" fill-opacity="0" stroke="#000000" stroke-width="1" stroke-opacity="0"></use></g></g><g><use xlink:href="#dacEZtWXf" opacity="1" fill="#000000" fill-opacity="1"></use><g><use xlink:href="#dacEZtWXf" opacity="1" fill-opacity="0" stroke="#000000" stroke-width="1" stroke-opacity="0"></use></g></g><g><use xlink:href="#c3SAvxVq3o" opacity="1" fill="#000000" fill-opacity="0"></use><g><use xlink:href="#c3SAvxVq3o" opacity="1" fill-opacity="0" stroke="#000000" stroke-width="1" stroke-opacity="0"></use></g></g><g><use xlink:href="#aizqhTyNL" opacity="1" fill="#000000" fill-opacity="0"></use><g><use xlink:href="#aizqhTyNL" opacity="1" fill-opacity="0" stroke="#000000" stroke-width="1" stroke-opacity="0"></use></g></g><g><use xlink:href="#f12yVC8Ta6" opacity="1" fill="#000000" fill-opacity="0"></use><g><use xlink:href="#f12yVC8Ta6" opacity="1" fill-opacity="0" stroke="#cccccc" stroke-width="4.13" stroke-opacity="1"></use></g></g><g><use xlink:href="#c7ldGIxpuk" opacity="1" fill="#000000" fill-opacity="0"></use><g><use xlink:href="#c7ldGIxpuk" opacity="1" fill-opacity="0" stroke="#000000" stroke-width="1" stroke-opacity="0"></use></g></g><g><use xlink:href="#a1TG4ChW4W" opacity="1" fill="#000000" fill-opacity="0"></use><g><use xlink:href="#a1TG4ChW4W" opacity="1" fill-opacity="0" stroke="#cccccc" stroke-width="4.13" stroke-opacity="1"></use></g></g><g><use xlink:href="#c13RUjalU" opacity="1" fill="#000000" fill-opacity="0"></use><g><use xlink:href="#c13RUjalU" opacity="1" fill-opacity="0" stroke="#000000" stroke-width="1" stroke-opacity="0"></use></g></g><g><use xlink:href="#c15vrni2ML" opacity="1" fill="#000000" fill-opacity="0"></use><g><use xlink:href="#c15vrni2ML" opacity="1" fill-opacity="0" stroke="#cccccc" stroke-width="4.13" stroke-opacity="1"></use></g></g><g><use xlink:href="#a8ovR64W2d" opacity="1" fill="#000000" fill-opacity="0"></use><g><use xlink:href="#a8ovR64W2d" opacity="1" fill-opacity="0" stroke="#000000" stroke-width="1" stroke-opacity="0"></use></g></g><g><use xlink:href="#b2VRmCcsO" opacity="1" fill="#000000" fill-opacity="0"></use><g><use xlink:href="#b2VRmCcsO" opacity="1" fill-opacity="0" stroke="#cccccc" stroke-width="4.13" stroke-opacity="1"></use></g></g><g><use xlink:href="#b2oQpF3" opacity="1" fill="#000000" fill-opacity="0"></use><g><use xlink:href="#b2oQpF3" opacity="1" fill-opacity="0" stroke="#000000" stroke-width="1" stroke-opacity="0"></use></g></g><g><use xlink:href="#b84SJDYhp" opacity="1" fill="#000000" fill-opacity="0"></use><g><use xlink:href="#b84SJDYhp" opacity="1" fill-opacity="0" stroke="#cccccc" stroke-width="4.13" stroke-opacity="1"></use></g></g><g><use xlink:href="#a2Fi6b4Ag" opacity="1" fill="#000000" fill-opacity="0"></use><g><use xlink:href="#a2Fi6b4Ag" opacity="1" fill-opacity="0" stroke="#000000" stroke-width="1" stroke-opacity="0"></use></g></g><g><use xlink:href="#dTVXosJCq" opacity="1" fill="#000000" fill-opacity="0"></use><g><use xlink:href="#dTVXosJCq" opacity="1" fill-opacity="0" stroke="#cccccc" stroke-width="4.13" stroke-opacity="1"></use></g></g><g><use xlink:href="#b4DX6Fv8PW" opacity="1" fill="#000000" fill-opacity="0"></use><g><use xlink:href="#b4DX6Fv8PW" opacity="1" fill-opacity="0" stroke="#000000" stroke-width="1" stroke-opacity="0"></use></g></g><g><use xlink:href="#aS5O1gg" opacity="1" fill="#000000" fill-opacity="0"></use><g><use xlink:href="#aS5O1gg" opacity="1" fill-opacity="0" stroke="#cccccc" stroke-width="4.13" stroke-opacity="1"></use></g></g><g><use xlink:href="#e1o5mWNpFf" opacity="1" fill="#000000" fill-opacity="0"></use><g><use xlink:href="#e1o5mWNpFf" opacity="1" fill-opacity="0" stroke="#000000" stroke-width="1" stroke-opacity="0"></use></g></g><g><use xlink:href="#eVbvteNkD" opacity="1" fill="#000000" fill-opacity="0"></use><g><use xlink:href="#eVbvteNkD" opacity="1" fill-opacity="0" stroke="#cccccc" stroke-width="4.13" stroke-opacity="1"></use></g></g><g><use xlink:href="#hq02pXftv" opacity="1" fill="#000000" fill-opacity="0"></use><g><use xlink:href="#hq02pXftv" opacity="1" fill-opacity="0" stroke="#000000" stroke-width="1" stroke-opacity="0"></use></g></g><g><use xlink:href="#bEsLX1PkT" opacity="1" fill="#000000" fill-opacity="0"></use><g><use xlink:href="#bEsLX1PkT" opacity="1" fill-opacity="0" stroke="#cccccc" stroke-width="4.13" stroke-opacity="1"></use></g></g><g><use xlink:href="#d6RzrKT7x" opacity="1" fill="#000000" fill-opacity="0"></use><g><use xlink:href="#d6RzrKT7x" opacity="1" fill-opacity="0" stroke="#000000" stroke-width="1" stroke-opacity="0"></use></g></g><g><use xlink:href="#c8oLUMklR" opacity="1" fill="#000000" fill-opacity="0"></use><g><use xlink:href="#c8oLUMklR" opacity="1" fill-opacity="0" stroke="#cccccc" stroke-width="4.13" stroke-opacity="1"></use></g></g><g><use xlink:href="#maUGAHXb" opacity="1" fill="#000000" fill-opacity="0"></use><g><use xlink:href="#maUGAHXb" opacity="1" fill-opacity="0" stroke="#000000" stroke-width="1" stroke-opacity="0"></use></g></g><g><use xlink:href="#f19PK7p95S" opacity="1" fill="#000000" fill-opacity="0"></use><g><use xlink:href="#f19PK7p95S" opacity="1" fill-opacity="0" stroke="#cccccc" stroke-width="4.13" stroke-opacity="1"></use></g></g><g><use xlink:href="#aeQa2WcG3" opacity="1" fill="#000000" fill-opacity="0"></use><g><use xlink:href="#aeQa2WcG3" opacity="1" fill-opacity="0" stroke="#000000" stroke-width="1" stroke-opacity="0"></use></g></g><g><use xlink:href="#aryTmK3fS" opacity="1" fill="#000000" fill-opacity="0"></use><g><use xlink:href="#aryTmK3fS" opacity="1" fill-opacity="0" stroke="#cccccc" stroke-width="4.13" stroke-opacity="1"></use></g></g><g><use xlink:href="#d6aH0oLqL" opacity="1" fill="#000000" fill-opacity="0"></use><g><use xlink:href="#d6aH0oLqL" opacity="1" fill-opacity="0" stroke="#000000" stroke-width="1" stroke-opacity="0"></use></g></g><g><use xlink:href="#c27ail58f7" opacity="1" fill="#000000" fill-opacity="0"></use><g><use xlink:href="#c27ail58f7" opacity="1" fill-opacity="0" stroke="#cccccc" stroke-width="3.91" stroke-opacity="1"></use></g></g></g></g></svg>